<svg xmlns="http://www.w3.org/2000/svg" width="560.008" height="64" viewBox="0 0 560.008 64">
  <g id="Arasaka" transform="translate(-522 -328)">
    <g id="Componente_4_2" data-name="Componente 4 – 2" transform="translate(522 328)">
      <path id="Caminho_34" data-name="Caminho 34" d="M223.1,309.72s-7.919,3.139-15.8,0c-3.478-1.382-8.118-6.256-9.8-10.086-5.085-11.57,12.977-20.352,12.977-20.352h7.583l13.707,9.593.516,37.436h16.728V303.393l-5.748-4.053v-1.032h5.748v-18.5l-24.1-15.475H206.118s-16.285,5.172-23.293,18.247c-4.041,7.538-5.978,17.3.934,28.108s15.912,14.053,26.714,15.107a38.39,38.39,0,0,0,21.29-4.584Z" transform="translate(-113 -263)" fill="#e60000"/>
      <path id="Caminho_36" data-name="Caminho 36" d="M223.1,309.72s-7.919,3.139-15.8,0c-3.478-1.382-8.118-6.256-9.8-10.086-5.085-11.57,12.977-20.352,12.977-20.352h7.583l13.707,9.593.516,37.436h16.728V303.393l-5.748-4.053v-1.032h5.748v-18.5l-24.1-15.475H206.118s-16.285,5.172-23.293,18.247c-4.041,7.538-5.978,17.3.934,28.108s15.912,14.053,26.714,15.107a38.39,38.39,0,0,0,21.29-4.584Z" transform="translate(36 -263)" fill="#e60000"/>
      <path id="Caminho_37" data-name="Caminho 37" d="M223.1,309.72s-7.919,3.139-15.8,0c-3.478-1.382-8.118-6.256-9.8-10.086-5.085-11.57,12.977-20.352,12.977-20.352h7.583l13.707,9.593.516,37.436h16.728V303.393l-5.748-4.053v-1.032h5.748v-18.5l-24.1-15.475H206.118s-16.285,5.172-23.293,18.247c-4.041,7.538-5.978,17.3.934,28.108s15.912,14.053,26.714,15.107a38.39,38.39,0,0,0,21.29-4.584Z" transform="translate(181 -263)" fill="#e60000"/>
      <path id="Caminho_38" data-name="Caminho 38" d="M223.1,309.72s-7.919,3.139-15.8,0c-3.478-1.382-8.118-6.256-9.8-10.086-5.085-11.57,12.977-20.352,12.977-20.352h7.583l13.707,9.593.516,37.436h16.728V303.393l-5.748-4.053v-1.032h5.748v-18.5l-24.1-15.475H206.118s-16.285,5.172-23.293,18.247c-4.041,7.538-5.978,17.3.934,28.108s15.912,14.053,26.714,15.107a38.39,38.39,0,0,0,21.29-4.584Z" transform="translate(311 -263)" fill="#e60000"/>
      <path id="Caminho_35" data-name="Caminho 35" d="M254.159,264.336v33.8l4.694,3.449v1.629h-5.077l.383,14.945h16.957v-4.6l2.108.479,19.019,12.481h27.6L270.7,292.329V280.294h30l4.361,5.93.567,7.282h17.4V279.64a33.785,33.785,0,0,0-4.753-8.983,38.962,38.962,0,0,0-7.805-7.195Z" transform="translate(-113 -263)" fill="#e60000"/>
      <path id="Caminho_39" data-name="Caminho 39" d="M428.819,264.042v15.7h33.088s-1.437-6.024-4.274-9.949a19.1,19.1,0,0,0-7.075-5.748Z" transform="translate(-113 -263)" fill="#e60000"/>
      <path id="Caminho_40" data-name="Caminho 40" d="M401.7,280.107h27.266l41.342,27.635v19.013H412.754a28.7,28.7,0,0,1-9.212-11.865c-2.8-7.351-1.99-17.539-1.99-17.539H418.5a28.357,28.357,0,0,0,1.916,8.475,11.889,11.889,0,0,0,4.422,4.937h18.571L401.7,282.686Z" transform="translate(-113 -263)" fill="#e60000"/>
      <path id="Caminho_41" data-name="Caminho 41" d="M549.6,264.336h16.507v13.081h2.9l19.348-13.081h24.716v2.716l-41.226,27.936,36.59,24.609s4.471,2.991,4.471,4.725c0,.616.5,1.313-.516,1.769a13.884,13.884,0,0,1-3.955.442H588.586l-20.708-13.707h-1.695v5.306H548.939V303.32h5.6v-2.506l-5.6-3.316Z" transform="translate(-113 -263)" fill="#e60000"/>
      <g id="Grupo_23" data-name="Grupo 23" transform="translate(-113 -263)">
        <circle id="Elipse_5" data-name="Elipse 5" cx="8.5" cy="8.5" r="8.5" transform="translate(137 275)" fill="#e60000"/>
        <circle id="Elipse_6" data-name="Elipse 6" cx="8.5" cy="8.5" r="8.5" transform="translate(121 285)" fill="#e60000"/>
        <circle id="Elipse_7" data-name="Elipse 7" cx="8.5" cy="8.5" r="8.5" transform="translate(153 285)" fill="#e60000"/>
        <rect id="Retângulo_30" data-name="Retângulo 30" width="5" height="27" transform="translate(143 292)" fill="#e60000"/>
        <rect id="Retângulo_31" data-name="Retângulo 31" width="5" height="13" transform="translate(133.558 299.67) rotate(-49)" fill="#e60000"/>
        <rect id="Retângulo_32" data-name="Retângulo 32" width="5" height="13" transform="translate(147.838 308.199) rotate(-131)" fill="#e60000"/>
        <g id="Elipse_8" data-name="Elipse 8" transform="translate(113 263)" fill="none" stroke="#e60000" stroke-width="5">
          <circle cx="32" cy="32" r="32" stroke="none"/>
          <circle cx="32" cy="32" r="29.5" fill="none"/>
        </g>
      </g>
    </g>
  </g>
</svg>
