<svg xmlns="http://www.w3.org/2000/svg" xmlns:xlink="http://www.w3.org/1999/xlink" width="607.205" height="898.109" viewBox="0 0 607.205 898.109">
  <defs>
    <filter id="Caminho_4" x="391.483" y="17.277" width="163.153" height="880.832" filterUnits="userSpaceOnUse">
      <feOffset dx="5" dy="3" input="SourceAlpha"/>
      <feGaussianBlur stdDeviation="5" result="blur"/>
      <feFlood flood-opacity="0.651"/>
      <feComposite operator="in" in2="blur"/>
      <feComposite in="SourceGraphic"/>
    </filter>
    <filter id="Caminho_29" x="356.086" y="15.534" width="100.416" height="876.095" filterUnits="userSpaceOnUse">
      <feOffset dy="3" input="SourceAlpha"/>
      <feGaussianBlur stdDeviation="3" result="blur-2"/>
      <feFlood flood-opacity="0.678"/>
      <feComposite operator="in" in2="blur-2"/>
      <feComposite in="SourceGraphic"/>
    </filter>
    <filter id="Caminho_14" x="92.366" y="81.346" width="114.826" height="641.053" filterUnits="userSpaceOnUse">
      <feOffset dx="-2" dy="3" input="SourceAlpha"/>
      <feGaussianBlur stdDeviation="3.5" result="blur-3"/>
      <feFlood flood-opacity="0.941"/>
      <feComposite operator="in" in2="blur-3"/>
      <feComposite in="SourceGraphic"/>
    </filter>
    <filter id="Caminho_11" x="60.717" y="33.176" width="186.564" height="850.243" filterUnits="userSpaceOnUse">
      <feOffset dx="-1" dy="-3" input="SourceAlpha"/>
      <feGaussianBlur stdDeviation="4.5" result="blur-4"/>
      <feFlood flood-opacity="0.82"/>
      <feComposite operator="in" in2="blur-4"/>
      <feComposite in="SourceGraphic"/>
    </filter>
    <filter id="Caminho_27" x="170.539" y="15.564" width="238.25" height="456.886" filterUnits="userSpaceOnUse">
      <feOffset dx="-3" dy="17" input="SourceAlpha"/>
      <feGaussianBlur stdDeviation="9.5" result="blur-5"/>
      <feFlood flood-color="#25271c"/>
      <feComposite operator="in" in2="blur-5"/>
      <feComposite in="SourceGraphic"/>
    </filter>
    <filter id="Elipse_1" x="235.001" y="45.018" width="111.272" height="89.829" filterUnits="userSpaceOnUse">
      <feOffset input="SourceAlpha"/>
      <feGaussianBlur stdDeviation="3" result="blur-6"/>
      <feFlood flood-color="#fff"/>
      <feComposite operator="in" in2="blur-6"/>
      <feComposite in="SourceGraphic"/>
    </filter>
    <filter id="Elipse_2" x="251.427" y="75.464" width="41.534" height="36.931" filterUnits="userSpaceOnUse">
      <feOffset input="SourceAlpha"/>
      <feGaussianBlur stdDeviation="3" result="blur-7"/>
      <feFlood flood-color="#fff"/>
      <feComposite operator="in" in2="blur-7"/>
      <feComposite in="SourceGraphic"/>
    </filter>
    <filter id="Elipse_3" x="270.916" y="62.472" width="41.534" height="36.931" filterUnits="userSpaceOnUse">
      <feOffset input="SourceAlpha"/>
      <feGaussianBlur stdDeviation="3" result="blur-8"/>
      <feFlood flood-color="#fff"/>
      <feComposite operator="in" in2="blur-8"/>
      <feComposite in="SourceGraphic"/>
    </filter>
    <filter id="Elipse_4" x="289.476" y="66.184" width="41.534" height="36.931" filterUnits="userSpaceOnUse">
      <feOffset input="SourceAlpha"/>
      <feGaussianBlur stdDeviation="3" result="blur-9"/>
      <feFlood flood-color="#fff"/>
      <feComposite operator="in" in2="blur-9"/>
      <feComposite in="SourceGraphic"/>
    </filter>
    <filter id="Caminho_9" x="268.271" y="76.172" width="47.274" height="46.239" filterUnits="userSpaceOnUse">
      <feOffset input="SourceAlpha"/>
      <feGaussianBlur stdDeviation="3" result="blur-10"/>
      <feFlood flood-color="#fff"/>
      <feComposite operator="in" in2="blur-10"/>
      <feComposite in="SourceGraphic"/>
    </filter>
    <linearGradient id="linear-gradient" x1="0.5" x2="0.5" y2="1" gradientUnits="objectBoundingBox">
      <stop offset="0" stop-opacity="0"/>
      <stop offset="0.28" stop-opacity="0.047"/>
      <stop offset="1" stop-opacity="0.988"/>
    </linearGradient>
  </defs>
  <g id="Arasaka-tower" transform="translate(-978.712 -64.799)">
    <g id="Componente_3_2" data-name="Componente 3 – 2" transform="translate(978.712 64.799)">
      <path id="Caminho_26" data-name="Caminho 26" d="M1721.116,1321.443s-4.252-25.771,14.435,99.87,58.38,403.51,58.38,403.51L1836,2158.913H1822.64l-107.474-834.67Z" transform="translate(-1260 -1277.986)" fill="#111d1e"/>
      <path id="Caminho_1" data-name="Caminho 1" d="M1793.3,2284.218h33.064L1788.5,1963.446l-26.328-195.261-44.5-320.7-24.641,5.6,14.61,135.2,4.854,53.091,36.965,318.683Z" transform="translate(-1258.406 -1403.218)" fill="#233a3d"/>
      <g transform="matrix(1, 0, 0, 1, 0, 0)" filter="url(#Caminho_4)">
        <path id="Caminho_4-2" data-name="Caminho 4" d="M1790.471,2157.164l-7.538-56.377-43.656-339.455s-47.268-423.145-47.571-426.786c-.154-1.849-1.062-16.686-1.062-16.686l-2.882-11.528-30.444,7.913,7.4,90.549,10.057,127.387,12.5,199.1,18.023,300.188,9.574,125.692Z" transform="translate(-1255.84 -1277.06)" fill="#233a3d"/>
      </g>
      <path id="Caminho_30" data-name="Caminho 30" d="M1651.816,1298.459l6.054,4.355v13.065l8.63,101.58,14.4,197.789,10.057,168.406,15.381,242.158,9.466,130.544h-14.987L1680.3,1913.224l-16.333-324.975-17.46-285.436-.425-2.337Z" transform="translate(-1255.027 -1276.488)" fill="#3f5558"/>
      <g transform="matrix(1, 0, 0, 1, 0, 0)" filter="url(#Caminho_29)">
        <path id="Caminho_29-2" data-name="Caminho 29" d="M1618.1,1304.724l31.517-6.735,7.574,120.56,13.843,206.11,14.612,277.633,14.869,253.792-47.939-2.82-34.477-645.4Z" transform="translate(-1253.01 -1276.45)" fill="#496367"/>
      </g>
      <path id="Caminho_28" data-name="Caminho 28" d="M1466.145,1329.359l132.832-24.113,22.807,543.748,30.038,306.45-329.5-6.258Z" transform="translate(-1231.718 -1276.977)" fill="#4c5f60"/>
      <path id="Caminho_10" data-name="Caminho 10" d="M1610.008,1304.446l-14.706-9.528-17.606,1.036v3.42h-5.374v-1.4l-62.437,17.4H1506.6l-8.078,1.317.359,2.424-12.476.538-.718,4.667-8.347.9-.522,8.961,72.066-16.363Z" transform="translate(-1242.841 -1276.233)" fill="#2d4043"/>
      <path id="Caminho_17" data-name="Caminho 17" d="M1405.949,1398.56l-14.406,1.885L1371.7,1540.363l-27.661,189.957-22.661,160.964-23.328,157.965-15.663,106.309,23.661,1.333,6.308-45.718,12.833-63.375,12.621-69.413,29.1-194.564,19.063-163.765Z" transform="translate(-1228.844 -1283.695)" fill="#415b62"/>
      <path id="Caminho_18" data-name="Caminho 18" d="M1396.038,1428.384l15.925-2.824" transform="translate(-1237.025 -1285.639)" fill="none" stroke="#0c1415" stroke-width="2"/>
      <g transform="matrix(1, 0, 0, 1, 0, 0)" filter="url(#Caminho_14)">
        <path id="Caminho_14-2" data-name="Caminho 14" d="M1431.518,1370.522l-22.176,4.781-2.3,35.769-4.926,44.684-9.435,85.587-15.33,150.633-21,159.3-18.662,139.3h8.5l42.89-142.5,39.424-293.734-1.29-91.391" transform="translate(-1232.83 -1281.68)" fill="#2c464d"/>
      </g>
      <path id="Caminho_2" data-name="Caminho 2" d="M1697.615,1355.246l23.9-3.93" transform="translate(-1258.737 -1280.294)" fill="none" stroke="#0c1415" stroke-width="2"/>
      <path id="Caminho_3" data-name="Caminho 3" d="M1711.371,1353.433l100.581,807.93" transform="translate(-1259.727 -1280.446)" fill="none" stroke="#0c1415" stroke-width="4"/>
      <path id="Caminho_5" data-name="Caminho 5" d="M1676.985,1327.224l26.207,283.624" transform="translate(-1257.251 -1278.559)" fill="none" stroke="rgba(0,0,0,0.66)" stroke-width="3"/>
      <path id="Caminho_16" data-name="Caminho 16" d="M1427.608,1390.974l-9.86,67.835,3.155,37.27" transform="translate(-1238.588 -1283.149)" fill="none" stroke="#0c1415" stroke-width="3"/>
      <path id="Caminho_8" data-name="Caminho 8" d="M1637.412,1302.157l4.777,101.152" transform="translate(-1254.402 -1276.754)" fill="none" stroke="#0c1415" stroke-width="3"/>
      <path id="Caminho_12" data-name="Caminho 12" d="M1464.856,1345.925l-25.711,5.431L1433.9,1468.58l27.092-81.729Z" transform="translate(-1239.751 -1279.905)" fill="#56757b"/>
      <g transform="matrix(1, 0, 0, 1, 0, 0)" filter="url(#Caminho_11)">
        <path id="Caminho_11-2" data-name="Caminho 11" d="M1465.306,1328.314l-10.41,16.411-2.984,39.947-24.573,56.579v15.776l-19.416,46.416-11.614,110.676-16.9,174.594-17.7,113.842-25.328,84.981-30.648,164.022h17.572l16.108-78.342,63.7-253.33,29.582-116.951,26.327-289.6Z" transform="translate(-1230.52 -1278.64)" fill="#445c61"/>
      </g>
      <path id="Caminho_13" data-name="Caminho 13" d="M1450.525,1351.777l-.675,54.759" transform="translate(-1240.899 -1280.327)" fill="none" stroke="#0c1415" stroke-width="3"/>
      <g transform="matrix(1, 0, 0, 1, 0, 0)" filter="url(#Caminho_27)">
        <path id="Caminho_27-2" data-name="Caminho 27" d="M-2.563-1.948,128.519-27.053l17.133,389.02-175.5,10.866-5.751-3.875Z" transform="translate(237.64 54.12)" fill="#344a4d"/>
      </g>
      <path id="Caminho_15" data-name="Caminho 15" d="M1420.528,1575.949l-27.174,231.23" transform="translate(-1236.832 -1296.465)" fill="none" stroke="#0c1415" stroke-width="5"/>
      <path id="Caminho_19" data-name="Caminho 19" d="M1481.577,1331.229l-29.326,378.249.333,233.948" transform="translate(-1241.072 -1278.847)" fill="none" stroke="#1a1a1a" stroke-width="3"/>
      <path id="Caminho_20" data-name="Caminho 20" d="M1483.852,1739.532l140.969-14" transform="translate(-1243.347 -1307.235)" fill="none" stroke="#1a1a1a" stroke-width="3"/>
      <path id="Caminho_21" data-name="Caminho 21" d="M1452.25,1851.571l30.455-111.257" transform="translate(-1241.072 -1308.299)" fill="none" stroke="#0c1415" stroke-width="1"/>
      <path id="Caminho_22" data-name="Caminho 22" d="M1602.684,1309.038l3.466,137.769" transform="translate(-1251.902 -1277.25)" fill="none" stroke="#0c1415" stroke-width="2"/>
      <path id="Caminho_23" data-name="Caminho 23" d="M1610.153,1484.572V1498" transform="translate(-1252.44 -1289.887)" fill="none" stroke="#0c1415" stroke-width="2"/>
      <path id="Caminho_24" data-name="Caminho 24" d="M1610.153,1512.116l3.9,139.5" transform="translate(-1252.44 -1291.87)" fill="none" stroke="#0c1415" stroke-width="4"/>
      <path id="Caminho_25" data-name="Caminho 25" d="M1517.446,1316.865c.35,0,40.723-10.852,40.723-10.852l2.684,5.718-44.106,10.151Z" transform="translate(-1245.715 -1277.032)" fill="#415b62"/>
      <g id="Grupo_12" data-name="Grupo 12" transform="translate(244.002 54.019)">
        <g transform="matrix(1, 0, 0, 1, -244, -54.02)" filter="url(#Elipse_1)">
          <g id="Elipse_1-2" data-name="Elipse 1" transform="matrix(0.98, -0.21, 0.21, 0.98, 244, 71.38)" fill="none" stroke="#fff" stroke-width="6">
            <ellipse cx="41.76" cy="27.84" rx="41.76" ry="27.84" stroke="none"/>
            <ellipse cx="41.76" cy="27.84" rx="38.76" ry="24.84" fill="none"/>
          </g>
        </g>
        <g transform="matrix(1, 0, 0, 1, -244, -54.02)" filter="url(#Elipse_2)">
          <ellipse id="Elipse_2-2" data-name="Elipse 2" cx="10.208" cy="6.496" rx="10.208" ry="6.496" transform="translate(260.43 91.11) rotate(-19)" fill="#fff"/>
        </g>
        <g transform="matrix(1, 0, 0, 1, -244, -54.02)" filter="url(#Elipse_3)">
          <ellipse id="Elipse_3-2" data-name="Elipse 3" cx="10.208" cy="6.496" rx="10.208" ry="6.496" transform="translate(279.92 78.12) rotate(-19)" fill="#fff"/>
        </g>
        <g transform="matrix(1, 0, 0, 1, -244, -54.02)" filter="url(#Elipse_4)">
          <ellipse id="Elipse_4-2" data-name="Elipse 4" cx="10.208" cy="6.496" rx="10.208" ry="6.496" transform="translate(298.48 81.83) rotate(-19)" fill="#fff"/>
        </g>
        <g transform="matrix(1, 0, 0, 1, -244, -54.02)" filter="url(#Caminho_9)">
          <path id="Caminho_9-2" data-name="Caminho 9" d="M1533.9,1369.118c.069.276-.622,8.354-.622,8.354l-6.007-1.933-3.8,2.624,9.251,5.523V1394.8l7.319-1.036-.552-11.668,13.256-11.047-4.557-1.933-7.871,6.421-.828-8.976-5.593.483Z" transform="translate(-1246.2 -1281.39)" fill="#fff"/>
        </g>
      </g>
      <rect id="Retângulo_24" data-name="Retângulo 24" width="607" height="881" fill="url(#linear-gradient)"/>
      <rect id="Retângulo_26" data-name="Retângulo 26" width="606.917" height="880.67" transform="translate(0.288 0.201)" fill="url(#linear-gradient)"/>
    </g>
  </g>
</svg>
