<svg xmlns="http://www.w3.org/2000/svg" xmlns:xlink="http://www.w3.org/1999/xlink" width="727" height="727" viewBox="0 0 727 727">
  <defs>
    <radialGradient id="radial-gradient" cx="0.5" cy="0.5" r="0.5" gradientUnits="objectBoundingBox">
      <stop offset="0" stop-color="#920000"/>
      <stop offset="1" stop-color="#cb2424"/>
    </radialGradient>
    <radialGradient id="radial-gradient-5" cx="0.5" cy="0.5" r="0.5" gradientUnits="objectBoundingBox">
      <stop offset="0" stop-color="#334fbf"/>
      <stop offset="1" stop-color="#5e7eff"/>
    </radialGradient>
    <linearGradient id="linear-gradient" x2="1" y2="1" gradientUnits="objectBoundingBox">
      <stop offset="0" stop-opacity="0.62"/>
      <stop offset="0.877" stop-color="#858585" stop-opacity="0.043"/>
      <stop offset="1" stop-color="gray" stop-opacity="0"/>
    </linearGradient>
    <linearGradient id="linear-gradient-2" x1="1" y1="1" x2="0" y2="0" xlink:href="#linear-gradient"/>
  </defs>
  <g id="pawns1" transform="translate(-568.165 -216.165)">
    <g id="Grupo_10" data-name="Grupo 10" transform="translate(568 216)">
      <rect id="Retângulo_1" data-name="Retângulo 1" width="90" height="90" transform="translate(0.165 637.165)" fill="url(#radial-gradient)"/>
      <rect id="Retângulo_41" data-name="Retângulo 41" width="91" height="90" transform="translate(363.165 637.165)" fill="url(#radial-gradient)"/>
      <rect id="Retângulo_31" data-name="Retângulo 31" width="90" height="90" transform="translate(183.165 637.165)" fill="url(#radial-gradient)"/>
      <rect id="Retângulo_42" data-name="Retângulo 42" width="91" height="90" transform="translate(546.165 637.165)" fill="url(#radial-gradient)"/>
      <g id="Retângulo_13" data-name="Retângulo 13" transform="translate(90.165 637.165)" stroke="#707070" stroke-width="1" fill="url(#radial-gradient-5)">
        <rect width="93" height="90" stroke="none"/>
        <rect x="0.5" y="0.5" width="92" height="89" fill="none"/>
      </g>
      <g id="Retângulo_43" data-name="Retângulo 43" transform="translate(454.165 637.165)" stroke="#707070" stroke-width="1" fill="url(#radial-gradient-5)">
        <rect width="92" height="90" stroke="none"/>
        <rect x="0.5" y="0.5" width="91" height="89" fill="none"/>
      </g>
      <g id="Retângulo_32" data-name="Retângulo 32" transform="translate(273.165 637.165)" stroke="#707070" stroke-width="1" fill="url(#radial-gradient-5)">
        <rect width="90" height="90" stroke="none"/>
        <rect x="0.5" y="0.5" width="89" height="89" fill="none"/>
      </g>
      <g id="Retângulo_44" data-name="Retângulo 44" transform="translate(637.165 637.165)" stroke="#707070" stroke-width="1" fill="url(#radial-gradient-5)">
        <rect width="90" height="90" stroke="none"/>
        <rect x="0.5" y="0.5" width="89" height="89" fill="none"/>
      </g>
      <rect id="Retângulo_8" data-name="Retângulo 8" width="90" height="91" transform="translate(0.165 273.165)" fill="url(#radial-gradient)"/>
      <rect id="Retângulo_36" data-name="Retângulo 36" width="91" height="91" transform="translate(363.165 273.165)" fill="url(#radial-gradient)"/>
      <rect id="Retângulo_19" data-name="Retângulo 19" width="90" height="91" transform="translate(183.165 273.165)" fill="url(#radial-gradient)"/>
      <rect id="Retângulo_45" data-name="Retângulo 45" width="91" height="91" transform="translate(546.165 273.165)" fill="url(#radial-gradient)"/>
      <g id="Retângulo_11" data-name="Retângulo 11" transform="translate(90.165 273.165)" stroke="#707070" stroke-width="1" fill="url(#radial-gradient-5)">
        <rect width="93" height="91" stroke="none"/>
        <rect x="0.5" y="0.5" width="92" height="90" fill="none"/>
      </g>
      <g id="Retângulo_37" data-name="Retângulo 37" transform="translate(454.165 273.165)" stroke="#707070" stroke-width="1" fill="url(#radial-gradient-5)">
        <rect width="92" height="91" stroke="none"/>
        <rect x="0.5" y="0.5" width="91" height="90" fill="none"/>
      </g>
      <g id="Retângulo_21" data-name="Retângulo 21" transform="translate(273.165 273.165)" stroke="#707070" stroke-width="1" fill="url(#radial-gradient-5)">
        <rect width="90" height="91" stroke="none"/>
        <rect x="0.5" y="0.5" width="89" height="90" fill="none"/>
      </g>
      <g id="Retângulo_46" data-name="Retângulo 46" transform="translate(637.165 273.165)" stroke="#707070" stroke-width="1" fill="url(#radial-gradient-5)">
        <rect width="90" height="91" stroke="none"/>
        <rect x="0.5" y="0.5" width="89" height="90" fill="none"/>
      </g>
      <rect id="Retângulo_4" data-name="Retângulo 4" width="90" height="92" transform="translate(0.165 454.165)" fill="url(#radial-gradient)"/>
      <rect id="Retângulo_47" data-name="Retângulo 47" width="91" height="92" transform="translate(363.165 454.165)" fill="url(#radial-gradient)"/>
      <rect id="Retângulo_22" data-name="Retângulo 22" width="90" height="92" transform="translate(183.165 454.165)" fill="url(#radial-gradient)"/>
      <rect id="Retângulo_48" data-name="Retângulo 48" width="91" height="92" transform="translate(546.165 454.165)" fill="url(#radial-gradient)"/>
      <g id="Retângulo_14" data-name="Retângulo 14" transform="translate(90.165 454.165)" stroke="#707070" stroke-width="1" fill="url(#radial-gradient-5)">
        <rect width="93" height="92" stroke="none"/>
        <rect x="0.5" y="0.5" width="92" height="91" fill="none"/>
      </g>
      <g id="Retângulo_49" data-name="Retângulo 49" transform="translate(454.165 454.165)" stroke="#707070" stroke-width="1" fill="url(#radial-gradient-5)">
        <rect width="92" height="92" stroke="none"/>
        <rect x="0.5" y="0.5" width="91" height="91" fill="none"/>
      </g>
      <g id="Retângulo_23" data-name="Retângulo 23" transform="translate(273.165 454.165)" stroke="#707070" stroke-width="1" fill="url(#radial-gradient-5)">
        <rect width="90" height="92" stroke="none"/>
        <rect x="0.5" y="0.5" width="89" height="91" fill="none"/>
      </g>
      <g id="Retângulo_50" data-name="Retângulo 50" transform="translate(637.165 454.165)" stroke="#707070" stroke-width="1" fill="url(#radial-gradient-5)">
        <rect width="90" height="92" stroke="none"/>
        <rect x="0.5" y="0.5" width="89" height="91" fill="none"/>
      </g>
      <rect id="Retângulo_6" data-name="Retângulo 6" width="90" height="93" transform="translate(0.165 90.165)" fill="url(#radial-gradient)"/>
      <rect id="Retângulo_33" data-name="Retângulo 33" width="91" height="93" transform="translate(363.165 90.165)" fill="url(#radial-gradient)"/>
      <rect id="Retângulo_17" data-name="Retângulo 17" width="90" height="93" transform="translate(183.165 90.165)" fill="url(#radial-gradient)"/>
      <rect id="Retângulo_51" data-name="Retângulo 51" width="91" height="93" transform="translate(546.165 90.165)" fill="url(#radial-gradient)"/>
      <g id="Retângulo_9" data-name="Retângulo 9" transform="translate(90.165 90.165)" stroke="#707070" stroke-width="1" fill="url(#radial-gradient-5)">
        <rect width="93" height="93" stroke="none"/>
        <rect x="0.5" y="0.5" width="92" height="92" fill="none"/>
      </g>
      <g id="Retângulo_38" data-name="Retângulo 38" transform="translate(454.165 90.165)" stroke="#707070" stroke-width="1" fill="url(#radial-gradient-5)">
        <rect width="92" height="93" stroke="none"/>
        <rect x="0.5" y="0.5" width="91" height="92" fill="none"/>
      </g>
      <g id="Retângulo_24" data-name="Retângulo 24" transform="translate(273.165 90.165)" stroke="#707070" stroke-width="1" fill="url(#radial-gradient-5)">
        <rect width="90" height="93" stroke="none"/>
        <rect x="0.5" y="0.5" width="89" height="92" fill="none"/>
      </g>
      <g id="Retângulo_52" data-name="Retângulo 52" transform="translate(637.165 90.165)" stroke="#707070" stroke-width="1" fill="url(#radial-gradient-5)">
        <rect width="90" height="93" stroke="none"/>
        <rect x="0.5" y="0.5" width="89" height="92" fill="none"/>
      </g>
      <g id="Retângulo_2" data-name="Retângulo 2" transform="translate(0.165 546.165)" stroke="#707070" stroke-width="1" fill="url(#radial-gradient-5)">
        <rect width="90" height="91" stroke="none"/>
        <rect x="0.5" y="0.5" width="89" height="90" fill="none"/>
      </g>
      <g id="Retângulo_53" data-name="Retângulo 53" transform="translate(363.165 546.165)" stroke="#707070" stroke-width="1" fill="url(#radial-gradient-5)">
        <rect width="91" height="91" stroke="none"/>
        <rect x="0.5" y="0.5" width="90" height="90" fill="none"/>
      </g>
      <g id="Retângulo_25" data-name="Retângulo 25" transform="translate(183.165 546.165)" stroke="#707070" stroke-width="1" fill="url(#radial-gradient-5)">
        <rect width="90" height="91" stroke="none"/>
        <rect x="0.5" y="0.5" width="89" height="90" fill="none"/>
      </g>
      <g id="Retângulo_54" data-name="Retângulo 54" transform="translate(546.165 546.165)" stroke="#707070" stroke-width="1" fill="url(#radial-gradient-5)">
        <rect width="91" height="91" stroke="none"/>
        <rect x="0.5" y="0.5" width="90" height="90" fill="none"/>
      </g>
      <rect id="Retângulo_15" data-name="Retângulo 15" width="93" height="91" transform="translate(90.165 546.165)" fill="url(#radial-gradient)"/>
      <rect id="Retângulo_55" data-name="Retângulo 55" width="92" height="91" transform="translate(454.165 546.165)" fill="url(#radial-gradient)"/>
      <rect id="Retângulo_26" data-name="Retângulo 26" width="90" height="91" transform="translate(273.165 546.165)" fill="url(#radial-gradient)"/>
      <rect id="Retângulo_56" data-name="Retângulo 56" width="90" height="91" transform="translate(637.165 546.165)" fill="url(#radial-gradient)"/>
      <g id="Retângulo_7" data-name="Retângulo 7" transform="translate(0.165 183.165)" stroke="#707070" stroke-width="1" fill="url(#radial-gradient-5)">
        <rect width="90" height="90" stroke="none"/>
        <rect x="0.5" y="0.5" width="89" height="89" fill="none"/>
      </g>
      <g id="Retângulo_34" data-name="Retângulo 34" transform="translate(363.165 183.165)" stroke="#707070" stroke-width="1" fill="url(#radial-gradient-5)">
        <rect width="91" height="90" stroke="none"/>
        <rect x="0.5" y="0.5" width="90" height="89" fill="none"/>
      </g>
      <g id="Retângulo_20" data-name="Retângulo 20" transform="translate(183.165 183.165)" stroke="#707070" stroke-width="1" fill="url(#radial-gradient-5)">
        <rect width="90" height="90" stroke="none"/>
        <rect x="0.5" y="0.5" width="89" height="89" fill="none"/>
      </g>
      <g id="Retângulo_57" data-name="Retângulo 57" transform="translate(546.165 183.165)" stroke="#707070" stroke-width="1" fill="url(#radial-gradient-5)">
        <rect width="91" height="90" stroke="none"/>
        <rect x="0.5" y="0.5" width="90" height="89" fill="none"/>
      </g>
      <rect id="Retângulo_12" data-name="Retângulo 12" width="93" height="90" transform="translate(90.165 183.165)" fill="url(#radial-gradient)"/>
      <rect id="Retângulo_39" data-name="Retângulo 39" width="92" height="90" transform="translate(454.165 183.165)" fill="url(#radial-gradient)"/>
      <rect id="Retângulo_27" data-name="Retângulo 27" width="90" height="90" transform="translate(273.165 183.165)" fill="url(#radial-gradient)"/>
      <rect id="Retângulo_58" data-name="Retângulo 58" width="90" height="90" transform="translate(637.165 183.165)" fill="url(#radial-gradient)"/>
      <g id="Retângulo_3" data-name="Retângulo 3" transform="translate(0.165 364.165)" stroke="#707070" stroke-width="1" fill="url(#radial-gradient-5)">
        <rect width="90" height="90" stroke="none"/>
        <rect x="0.5" y="0.5" width="89" height="89" fill="none"/>
      </g>
      <g id="Retângulo_59" data-name="Retângulo 59" transform="translate(363.165 364.165)" stroke="#707070" stroke-width="1" fill="url(#radial-gradient-5)">
        <rect width="91" height="90" stroke="none"/>
        <rect x="0.5" y="0.5" width="90" height="89" fill="none"/>
      </g>
      <g id="Retângulo_28" data-name="Retângulo 28" transform="translate(183.165 364.165)" stroke="#707070" stroke-width="1" fill="url(#radial-gradient-5)">
        <rect width="90" height="90" stroke="none"/>
        <rect x="0.5" y="0.5" width="89" height="89" fill="none"/>
      </g>
      <g id="Retângulo_60" data-name="Retângulo 60" transform="translate(546.165 364.165)" stroke="#707070" stroke-width="1" fill="url(#radial-gradient-5)">
        <rect width="91" height="90" stroke="none"/>
        <rect x="0.5" y="0.5" width="90" height="89" fill="none"/>
      </g>
      <rect id="Retângulo_16" data-name="Retângulo 16" width="93" height="90" transform="translate(90.165 364.165)" fill="url(#radial-gradient)"/>
      <rect id="Retângulo_61" data-name="Retângulo 61" width="92" height="90" transform="translate(454.165 364.165)" fill="url(#radial-gradient)"/>
      <rect id="Retângulo_29" data-name="Retângulo 29" width="90" height="90" transform="translate(273.165 364.165)" fill="url(#radial-gradient)"/>
      <rect id="Retângulo_62" data-name="Retângulo 62" width="90" height="90" transform="translate(637.165 364.165)" fill="url(#radial-gradient)"/>
      <g id="Retângulo_5" data-name="Retângulo 5" transform="translate(0.165 0.165)" stroke="#707070" stroke-width="1" fill="url(#radial-gradient-5)">
        <rect width="90" height="90" stroke="none"/>
        <rect x="0.5" y="0.5" width="89" height="89" fill="none"/>
      </g>
      <g id="Retângulo_35" data-name="Retângulo 35" transform="translate(363.165 0.165)" stroke="#707070" stroke-width="1" fill="url(#radial-gradient-5)">
        <rect width="91" height="90" stroke="none"/>
        <rect x="0.5" y="0.5" width="90" height="89" fill="none"/>
      </g>
      <g id="Retângulo_18" data-name="Retângulo 18" transform="translate(183.165 0.165)" stroke="#707070" stroke-width="1" fill="url(#radial-gradient-5)">
        <rect width="90" height="90" stroke="none"/>
        <rect x="0.5" y="0.5" width="89" height="89" fill="none"/>
      </g>
      <g id="Retângulo_63" data-name="Retângulo 63" transform="translate(546.165 0.165)" stroke="#707070" stroke-width="1" fill="url(#radial-gradient-5)">
        <rect width="91" height="90" stroke="none"/>
        <rect x="0.5" y="0.5" width="90" height="89" fill="none"/>
      </g>
      <rect id="Retângulo_10" data-name="Retângulo 10" width="93" height="90" transform="translate(90.165 0.165)" fill="url(#radial-gradient)"/>
      <rect id="Retângulo_40" data-name="Retângulo 40" width="92" height="90" transform="translate(454.165 0.165)" fill="url(#radial-gradient)"/>
      <rect id="Retângulo_30" data-name="Retângulo 30" width="90" height="90" transform="translate(273.165 0.165)" fill="url(#radial-gradient)"/>
      <rect id="Retângulo_64" data-name="Retângulo 64" width="90" height="90" transform="translate(637.165 0.165)" fill="url(#radial-gradient)"/>
      <g id="Retângulo_65" data-name="Retângulo 65" transform="translate(0.165 0.165)" fill="none" stroke="#181818" stroke-width="3">
        <rect width="727" height="727" stroke="none"/>
        <rect x="1.5" y="1.5" width="724" height="724" fill="none"/>
      </g>
      <g id="Grupo_4" data-name="Grupo 4" transform="translate(108.403 645.795)">
        <g id="Componente_2_2" data-name="Componente 2 – 2" transform="translate(0 0)">
          <circle id="Elipse_1" data-name="Elipse 1" cx="14.595" cy="14.595" r="14.595" transform="translate(13.425 0)" fill="#484741"/>
          <path id="Caminho_1" data-name="Caminho 1" d="M1360.95,513.5l-8.069,5.169a26.493,26.493,0,0,0,.315,3.53,15.461,15.461,0,0,0,.82,2.9h30.891a8.359,8.359,0,0,0,1.009-2.9,17.486,17.486,0,0,0,0-3.845l-7.445-4.854Z" transform="translate(-1341.689 -487.865)" fill="#54534d"/>
          <path id="Caminho_2" data-name="Caminho 2" d="M1327.209,558.628s-.912,7.665-5.164,13.359c-3.121,4.181-9.413,5.924-11.556,9.834-4.1,7.95-3.114,13.359-3.114,13.359l55.812.082s1.639-3.442-3.032-12.786c-2.084-4.169-9.243-6.782-12.7-11.31a25.364,25.364,0,0,1-4.589-12.539Z" transform="translate(-1307.272 -521.924)" fill="#3e3e3a"/>
        </g>
      </g>
      <g id="Grupo_8" data-name="Grupo 8" transform="translate(200.13 554.994)">
        <g id="Componente_2_5" data-name="Componente 2 – 5" transform="translate(0 0)">
          <circle id="Elipse_1-2" data-name="Elipse 1" cx="14.595" cy="14.595" r="14.595" transform="translate(13.425 0)" fill="#484741"/>
          <path id="Caminho_1-2" data-name="Caminho 1" d="M1360.95,513.5l-8.069,5.169a26.493,26.493,0,0,0,.315,3.53,15.461,15.461,0,0,0,.82,2.9h30.891a8.359,8.359,0,0,0,1.009-2.9,17.486,17.486,0,0,0,0-3.845l-7.445-4.854Z" transform="translate(-1341.689 -487.865)" fill="#54534d"/>
          <path id="Caminho_2-2" data-name="Caminho 2" d="M1327.209,558.628s-.912,7.665-5.164,13.359c-3.121,4.181-9.413,5.924-11.556,9.834-4.1,7.95-3.114,13.359-3.114,13.359l55.812.082s1.639-3.442-3.032-12.786c-2.084-4.169-9.243-6.782-12.7-11.31a25.364,25.364,0,0,1-4.589-12.539Z" transform="translate(-1307.272 -521.924)" fill="#3e3e3a"/>
        </g>
      </g>
      <g id="Grupo_6" data-name="Grupo 6" transform="translate(564.258 554.994)">
        <g id="Componente_2_3" data-name="Componente 2 – 3" transform="translate(0 0)">
          <circle id="Elipse_1-3" data-name="Elipse 1" cx="14.595" cy="14.595" r="14.595" transform="translate(13.425 0)" fill="#484741"/>
          <path id="Caminho_1-3" data-name="Caminho 1" d="M1360.95,513.5l-8.069,5.169a26.493,26.493,0,0,0,.315,3.53,15.461,15.461,0,0,0,.82,2.9h30.891a8.359,8.359,0,0,0,1.009-2.9,17.486,17.486,0,0,0,0-3.845l-7.445-4.854Z" transform="translate(-1341.689 -487.865)" fill="#54534d"/>
          <path id="Caminho_2-3" data-name="Caminho 2" d="M1327.209,558.628s-.912,7.665-5.164,13.359c-3.121,4.181-9.413,5.924-11.556,9.834-4.1,7.95-3.114,13.359-3.114,13.359l55.812.082s1.639-3.442-3.032-12.786c-2.084-4.169-9.243-6.782-12.7-11.31a25.364,25.364,0,0,1-4.589-12.539Z" transform="translate(-1307.272 -521.924)" fill="#3e3e3a"/>
        </g>
      </g>
      <g id="Grupo_15" data-name="Grupo 15" transform="translate(654.132 463.267)">
        <g id="Componente_2_7" data-name="Componente 2 – 7" transform="translate(0 0)">
          <circle id="Elipse_1-4" data-name="Elipse 1" cx="14.595" cy="14.595" r="14.595" transform="translate(13.425 0)" fill="#484741"/>
          <path id="Caminho_1-4" data-name="Caminho 1" d="M1360.95,513.5l-8.069,5.169a26.493,26.493,0,0,0,.315,3.53,15.461,15.461,0,0,0,.82,2.9h30.891a8.359,8.359,0,0,0,1.009-2.9,17.486,17.486,0,0,0,0-3.845l-7.445-4.854Z" transform="translate(-1341.689 -487.865)" fill="#54534d"/>
          <path id="Caminho_2-4" data-name="Caminho 2" d="M1327.209,558.628s-.912,7.665-5.164,13.359c-3.121,4.181-9.413,5.924-11.556,9.834-4.1,7.95-3.114,13.359-3.114,13.359l55.812.082s1.639-3.442-3.032-12.786c-2.084-4.169-9.243-6.782-12.7-11.31a25.364,25.364,0,0,1-4.589-12.539Z" transform="translate(-1307.272 -521.924)" fill="#3e3e3a"/>
        </g>
      </g>
      <g id="Grupo_21" data-name="Grupo 21" transform="translate(654.132 280.74)">
        <g id="Componente_2_11" data-name="Componente 2 – 11" transform="translate(0 0)">
          <circle id="Elipse_1-5" data-name="Elipse 1" cx="14.595" cy="14.595" r="14.595" transform="translate(13.425 0)" fill="#484741"/>
          <path id="Caminho_1-5" data-name="Caminho 1" d="M1360.95,513.5l-8.069,5.169a26.493,26.493,0,0,0,.315,3.53,15.461,15.461,0,0,0,.82,2.9h30.891a8.359,8.359,0,0,0,1.009-2.9,17.486,17.486,0,0,0,0-3.845l-7.445-4.854Z" transform="translate(-1341.689 -487.865)" fill="#54534d"/>
          <path id="Caminho_2-5" data-name="Caminho 2" d="M1327.209,558.628s-.912,7.665-5.164,13.359c-3.121,4.181-9.413,5.924-11.556,9.834-4.1,7.95-3.114,13.359-3.114,13.359l55.812.082s1.639-3.442-3.032-12.786c-2.084-4.169-9.243-6.782-12.7-11.31a25.364,25.364,0,0,1-4.589-12.539Z" transform="translate(-1307.272 -521.924)" fill="#3e3e3a"/>
        </g>
      </g>
      <g id="Grupo_29" data-name="Grupo 29" transform="translate(654.132 100.066)">
        <g id="Componente_2_14" data-name="Componente 2 – 14" transform="translate(0 0)">
          <circle id="Elipse_1-6" data-name="Elipse 1" cx="14.595" cy="14.595" r="14.595" transform="translate(13.425 0)" fill="#484741"/>
          <path id="Caminho_1-6" data-name="Caminho 1" d="M1360.95,513.5l-8.069,5.169a26.493,26.493,0,0,0,.315,3.53,15.461,15.461,0,0,0,.82,2.9h30.891a8.359,8.359,0,0,0,1.009-2.9,17.486,17.486,0,0,0,0-3.845l-7.445-4.854Z" transform="translate(-1341.689 -487.865)" fill="#54534d"/>
          <path id="Caminho_2-6" data-name="Caminho 2" d="M1327.209,558.628s-.912,7.665-5.164,13.359c-3.121,4.181-9.413,5.924-11.556,9.834-4.1,7.95-3.114,13.359-3.114,13.359l55.812.082s1.639-3.442-3.032-12.786c-2.084-4.169-9.243-6.782-12.7-11.31a25.364,25.364,0,0,1-4.589-12.539Z" transform="translate(-1307.272 -521.924)" fill="#3e3e3a"/>
        </g>
      </g>
      <g id="Grupo_16" data-name="Grupo 16" transform="translate(564.258 371.54)">
        <g id="Componente_2_8" data-name="Componente 2 – 8" transform="translate(0 0)">
          <circle id="Elipse_1-7" data-name="Elipse 1" cx="14.595" cy="14.595" r="14.595" transform="translate(13.425 0)" fill="#484741"/>
          <path id="Caminho_1-7" data-name="Caminho 1" d="M1360.95,513.5l-8.069,5.169a26.493,26.493,0,0,0,.315,3.53,15.461,15.461,0,0,0,.82,2.9h30.891a8.359,8.359,0,0,0,1.009-2.9,17.486,17.486,0,0,0,0-3.845l-7.445-4.854Z" transform="translate(-1341.689 -487.865)" fill="#54534d"/>
          <path id="Caminho_2-7" data-name="Caminho 2" d="M1327.209,558.628s-.912,7.665-5.164,13.359c-3.121,4.181-9.413,5.924-11.556,9.834-4.1,7.95-3.114,13.359-3.114,13.359l55.812.082s1.639-3.442-3.032-12.786c-2.084-4.169-9.243-6.782-12.7-11.31a25.364,25.364,0,0,1-4.589-12.539Z" transform="translate(-1307.272 -521.924)" fill="#3e3e3a"/>
        </g>
      </g>
      <g id="Grupo_17" data-name="Grupo 17" transform="translate(380.804 371.54)">
        <g id="Componente_2_9" data-name="Componente 2 – 9" transform="translate(0 0)">
          <circle id="Elipse_1-8" data-name="Elipse 1" cx="14.595" cy="14.595" r="14.595" transform="translate(13.425 0)" fill="#484741"/>
          <path id="Caminho_1-8" data-name="Caminho 1" d="M1360.95,513.5l-8.069,5.169a26.493,26.493,0,0,0,.315,3.53,15.461,15.461,0,0,0,.82,2.9h30.891a8.359,8.359,0,0,0,1.009-2.9,17.486,17.486,0,0,0,0-3.845l-7.445-4.854Z" transform="translate(-1341.689 -487.865)" fill="#54534d"/>
          <path id="Caminho_2-8" data-name="Caminho 2" d="M1327.209,558.628s-.912,7.665-5.164,13.359c-3.121,4.181-9.413,5.924-11.556,9.834-4.1,7.95-3.114,13.359-3.114,13.359l55.812.082s1.639-3.442-3.032-12.786c-2.084-4.169-9.243-6.782-12.7-11.31a25.364,25.364,0,0,1-4.589-12.539Z" transform="translate(-1307.272 -521.924)" fill="#3e3e3a"/>
        </g>
      </g>
      <g id="Grupo_18" data-name="Grupo 18" transform="translate(200.13 372.467)">
        <g id="Componente_2_10" data-name="Componente 2 – 10" transform="translate(0 0)">
          <circle id="Elipse_1-9" data-name="Elipse 1" cx="14.595" cy="14.595" r="14.595" transform="translate(13.425 0)" fill="#484741"/>
          <path id="Caminho_1-9" data-name="Caminho 1" d="M1360.95,513.5l-8.069,5.169a26.493,26.493,0,0,0,.315,3.53,15.461,15.461,0,0,0,.82,2.9h30.891a8.359,8.359,0,0,0,1.009-2.9,17.486,17.486,0,0,0,0-3.845l-7.445-4.854Z" transform="translate(-1341.689 -487.865)" fill="#54534d"/>
          <path id="Caminho_2-9" data-name="Caminho 2" d="M1327.209,558.628s-.912,7.665-5.164,13.359c-3.121,4.181-9.413,5.924-11.556,9.834-4.1,7.95-3.114,13.359-3.114,13.359l55.812.082s1.639-3.442-3.032-12.786c-2.084-4.169-9.243-6.782-12.7-11.31a25.364,25.364,0,0,1-4.589-12.539Z" transform="translate(-1307.272 -521.924)" fill="#3e3e3a"/>
        </g>
      </g>
      <g id="Grupo_32" data-name="Grupo 32" transform="translate(290.004 100.066)">
        <g id="Componente_2_16" data-name="Componente 2 – 16" transform="translate(0 0)">
          <circle id="Elipse_1-10" data-name="Elipse 1" cx="14.595" cy="14.595" r="14.595" transform="translate(13.425 0)" fill="#484741"/>
          <path id="Caminho_1-10" data-name="Caminho 1" d="M1360.95,513.5l-8.069,5.169a26.493,26.493,0,0,0,.315,3.53,15.461,15.461,0,0,0,.82,2.9h30.891a8.359,8.359,0,0,0,1.009-2.9,17.486,17.486,0,0,0,0-3.845l-7.445-4.854Z" transform="translate(-1341.689 -487.865)" fill="#54534d"/>
          <path id="Caminho_2-10" data-name="Caminho 2" d="M1327.209,558.628s-.912,7.665-5.164,13.359c-3.121,4.181-9.413,5.924-11.556,9.834-4.1,7.95-3.114,13.359-3.114,13.359l55.812.082s1.639-3.442-3.032-12.786c-2.084-4.169-9.243-6.782-12.7-11.31a25.364,25.364,0,0,1-4.589-12.539Z" transform="translate(-1307.272 -521.924)" fill="#3e3e3a"/>
        </g>
      </g>
      <g id="Grupo_7" data-name="Grupo 7" transform="translate(472.531 645.795)">
        <g id="Componente_2_4" data-name="Componente 2 – 4" transform="translate(0 0)">
          <circle id="Elipse_1-11" data-name="Elipse 1" cx="14.595" cy="14.595" r="14.595" transform="translate(13.425 0)" fill="#484741"/>
          <path id="Caminho_1-11" data-name="Caminho 1" d="M1360.95,513.5l-8.069,5.169a26.493,26.493,0,0,0,.315,3.53,15.461,15.461,0,0,0,.82,2.9h30.891a8.359,8.359,0,0,0,1.009-2.9,17.486,17.486,0,0,0,0-3.845l-7.445-4.854Z" transform="translate(-1341.689 -487.865)" fill="#54534d"/>
          <path id="Caminho_2-11" data-name="Caminho 2" d="M1327.209,558.628s-.912,7.665-5.164,13.359c-3.121,4.181-9.413,5.924-11.556,9.834-4.1,7.95-3.114,13.359-3.114,13.359l55.812.082s1.639-3.442-3.032-12.786c-2.084-4.169-9.243-6.782-12.7-11.31a25.364,25.364,0,0,1-4.589-12.539Z" transform="translate(-1307.272 -521.924)" fill="#3e3e3a"/>
        </g>
      </g>
      <g id="Grupo_5" data-name="Grupo 5" transform="translate(564.258 645.795)">
        <g id="Componente_1_2" data-name="Componente 1 – 2" transform="translate(0 0)">
          <circle id="Elipse_1-12" data-name="Elipse 1" cx="14.595" cy="14.595" r="14.595" transform="translate(13.425 0)" fill="#c7c3ab"/>
          <path id="Caminho_1-12" data-name="Caminho 1" d="M1360.95,513.5l-8.069,5.169a26.491,26.491,0,0,0,.315,3.53,15.475,15.475,0,0,0,.82,2.9h30.891a8.364,8.364,0,0,0,1.009-2.9,17.486,17.486,0,0,0,0-3.846l-7.445-4.853Z" transform="translate(-1341.689 -487.865)" fill="#d2ceb4"/>
          <path id="Caminho_2-12" data-name="Caminho 2" d="M1327.209,558.628s-.912,7.665-5.164,13.359c-3.121,4.181-9.413,5.924-11.556,9.834-4.1,7.95-3.114,13.359-3.114,13.359l55.812.082s1.639-3.442-3.032-12.786c-2.084-4.169-9.243-6.782-12.7-11.31a25.364,25.364,0,0,1-4.589-12.539Z" transform="translate(-1307.272 -521.924)" fill="#c6c3ab"/>
        </g>
      </g>
      <g id="Grupo_10-2" data-name="Grupo 10" transform="translate(290.004 554.994)">
        <g id="Componente_1_3" data-name="Componente 1 – 3" transform="translate(0 0)">
          <circle id="Elipse_1-13" data-name="Elipse 1" cx="14.595" cy="14.595" r="14.595" transform="translate(13.425 0)" fill="#c7c3ab"/>
          <path id="Caminho_1-13" data-name="Caminho 1" d="M1360.95,513.5l-8.069,5.169a26.491,26.491,0,0,0,.315,3.53,15.475,15.475,0,0,0,.82,2.9h30.891a8.364,8.364,0,0,0,1.009-2.9,17.486,17.486,0,0,0,0-3.846l-7.445-4.853Z" transform="translate(-1341.689 -487.865)" fill="#d2ceb4"/>
          <path id="Caminho_2-13" data-name="Caminho 2" d="M1327.209,558.628s-.912,7.665-5.164,13.359c-3.121,4.181-9.413,5.924-11.556,9.834-4.1,7.95-3.114,13.359-3.114,13.359l55.812.082s1.639-3.442-3.032-12.786c-2.084-4.169-9.243-6.782-12.7-11.31a25.364,25.364,0,0,1-4.589-12.539Z" transform="translate(-1307.272 -521.924)" fill="#c6c3ab"/>
        </g>
      </g>
      <g id="Grupo_11" data-name="Grupo 11" transform="translate(108.403 554.994)">
        <g id="Componente_1_4" data-name="Componente 1 – 4" transform="translate(0 0)">
          <circle id="Elipse_1-14" data-name="Elipse 1" cx="14.595" cy="14.595" r="14.595" transform="translate(13.425 0)" fill="#c7c3ab"/>
          <path id="Caminho_1-14" data-name="Caminho 1" d="M1360.95,513.5l-8.069,5.169a26.491,26.491,0,0,0,.315,3.53,15.475,15.475,0,0,0,.82,2.9h30.891a8.364,8.364,0,0,0,1.009-2.9,17.486,17.486,0,0,0,0-3.846l-7.445-4.853Z" transform="translate(-1341.689 -487.865)" fill="#d2ceb4"/>
          <path id="Caminho_2-14" data-name="Caminho 2" d="M1327.209,558.628s-.912,7.665-5.164,13.359c-3.121,4.181-9.413,5.924-11.556,9.834-4.1,7.95-3.114,13.359-3.114,13.359l55.812.082s1.639-3.442-3.032-12.786c-2.084-4.169-9.243-6.782-12.7-11.31a25.364,25.364,0,0,1-4.589-12.539Z" transform="translate(-1307.272 -521.924)" fill="#c6c3ab"/>
        </g>
      </g>
      <g id="Grupo_13" data-name="Grupo 13" transform="translate(108.403 463.267)">
        <g id="Componente_2_6" data-name="Componente 2 – 6" transform="translate(0 0)">
          <circle id="Elipse_1-15" data-name="Elipse 1" cx="14.595" cy="14.595" r="14.595" transform="translate(13.425)" fill="#b70000"/>
          <path id="Caminho_1-15" data-name="Caminho 1" d="M1360.95,513.5l-8.069,5.169a26.493,26.493,0,0,0,.315,3.53,15.461,15.461,0,0,0,.82,2.9h30.891a8.359,8.359,0,0,0,1.009-2.9,17.486,17.486,0,0,0,0-3.845l-7.445-4.854Z" transform="translate(-1341.689 -487.865)" fill="#e62b2b"/>
          <path id="Caminho_2-15" data-name="Caminho 2" d="M1327.209,558.628s-.912,7.665-5.164,13.359c-3.121,4.181-9.413,5.924-11.556,9.834-4.1,7.95-3.114,13.359-3.114,13.359l55.812.082s1.639-3.442-3.032-12.786c-2.084-4.169-9.243-6.782-12.7-11.31a25.364,25.364,0,0,1-4.589-12.539Z" transform="translate(-1307.272 -521.924)" fill="#e60000"/>
        </g>
      </g>
      <g id="Grupo_13-2" data-name="Grupo 13" transform="translate(200.13 371.54)">
        <g id="Componente_2_6-2" data-name="Componente 2 – 6" transform="translate(0 0)">
          <circle id="Elipse_1-16" data-name="Elipse 1" cx="14.595" cy="14.595" r="14.595" transform="translate(13.425)" fill="#b70000"/>
          <path id="Caminho_1-16" data-name="Caminho 1" d="M1360.95,513.5l-8.069,5.169a26.493,26.493,0,0,0,.315,3.53,15.461,15.461,0,0,0,.82,2.9h30.891a8.359,8.359,0,0,0,1.009-2.9,17.486,17.486,0,0,0,0-3.845l-7.445-4.854Z" transform="translate(-1341.689 -487.865)" fill="#e62b2b"/>
          <path id="Caminho_2-16" data-name="Caminho 2" d="M1327.209,558.628s-.912,7.665-5.164,13.359c-3.121,4.181-9.413,5.924-11.556,9.834-4.1,7.95-3.114,13.359-3.114,13.359l55.812.082s1.639-3.442-3.032-12.786c-2.084-4.169-9.243-6.782-12.7-11.31a25.364,25.364,0,0,1-4.589-12.539Z" transform="translate(-1307.272 -521.924)" fill="#e60000"/>
        </g>
      </g>
      <g id="Grupo_12" data-name="Grupo 12" transform="translate(200.13 463.267)">
        <g id="Componente_1_5" data-name="Componente 1 – 5" transform="translate(0 0)">
          <circle id="Elipse_1-17" data-name="Elipse 1" cx="14.595" cy="14.595" r="14.595" transform="translate(13.425)" fill="#c7c3ab"/>
          <path id="Caminho_1-17" data-name="Caminho 1" d="M1360.95,513.5l-8.069,5.169a26.491,26.491,0,0,0,.315,3.53,15.475,15.475,0,0,0,.82,2.9h30.891a8.364,8.364,0,0,0,1.009-2.9,17.486,17.486,0,0,0,0-3.846l-7.445-4.853Z" transform="translate(-1341.689 -487.865)" fill="#d2ceb4"/>
          <path id="Caminho_2-17" data-name="Caminho 2" d="M1327.209,558.628s-.912,7.665-5.164,13.359c-3.121,4.181-9.413,5.924-11.556,9.834-4.1,7.95-3.114,13.359-3.114,13.359l55.812.082s1.639-3.442-3.032-12.786c-2.084-4.169-9.243-6.782-12.7-11.31a25.364,25.364,0,0,1-4.589-12.539Z" transform="translate(-1307.272 -521.924)" fill="#c6c3ab"/>
        </g>
      </g>
      <g id="Grupo_19" data-name="Grupo 19" transform="translate(108.403 372.467)">
        <g id="Componente_1_6" data-name="Componente 1 – 6" transform="translate(0 0)">
          <circle id="Elipse_1-18" data-name="Elipse 1" cx="14.595" cy="14.595" r="14.595" transform="translate(13.425)" fill="#c7c3ab"/>
          <path id="Caminho_1-18" data-name="Caminho 1" d="M1360.95,513.5l-8.069,5.169a26.491,26.491,0,0,0,.315,3.53,15.475,15.475,0,0,0,.82,2.9h30.891a8.364,8.364,0,0,0,1.009-2.9,17.486,17.486,0,0,0,0-3.846l-7.445-4.853Z" transform="translate(-1341.689 -487.865)" fill="#d2ceb4"/>
          <path id="Caminho_2-18" data-name="Caminho 2" d="M1327.209,558.628s-.912,7.665-5.164,13.359c-3.121,4.181-9.413,5.924-11.556,9.834-4.1,7.95-3.114,13.359-3.114,13.359l55.812.082s1.639-3.442-3.032-12.786c-2.084-4.169-9.243-6.782-12.7-11.31a25.364,25.364,0,0,1-4.589-12.539Z" transform="translate(-1307.272 -521.924)" fill="#c6c3ab"/>
        </g>
      </g>
      <g id="Grupo_24" data-name="Grupo 24" transform="translate(108.403 281.667)">
        <g id="Componente_2_12" data-name="Componente 2 – 12" transform="translate(0 0)">
          <circle id="Elipse_1-19" data-name="Elipse 1" cx="14.595" cy="14.595" r="14.595" transform="translate(13.425)" fill="#484741"/>
          <path id="Caminho_1-19" data-name="Caminho 1" d="M1360.95,513.5l-8.069,5.169a26.493,26.493,0,0,0,.315,3.53,15.461,15.461,0,0,0,.82,2.9h30.891a8.359,8.359,0,0,0,1.009-2.9,17.486,17.486,0,0,0,0-3.845l-7.445-4.854Z" transform="translate(-1341.689 -487.865)" fill="#54534d"/>
          <path id="Caminho_2-19" data-name="Caminho 2" d="M1327.209,558.628s-.912,7.665-5.164,13.359c-3.121,4.181-9.413,5.924-11.556,9.834-4.1,7.95-3.114,13.359-3.114,13.359l55.812.082s1.639-3.442-3.032-12.786c-2.084-4.169-9.243-6.782-12.7-11.31a25.364,25.364,0,0,1-4.589-12.539Z" transform="translate(-1307.272 -521.924)" fill="#3e3e3a"/>
        </g>
      </g>
      <g id="Grupo_23" data-name="Grupo 23" transform="translate(200.13 281.667)">
        <g id="Componente_1_9" data-name="Componente 1 – 9" transform="translate(0 0)">
          <circle id="Elipse_1-20" data-name="Elipse 1" cx="14.595" cy="14.595" r="14.595" transform="translate(13.425)" fill="#2c4ccc"/>
          <path id="Caminho_1-20" data-name="Caminho 1" d="M1360.95,513.5l-8.069,5.169a26.491,26.491,0,0,0,.315,3.53,15.475,15.475,0,0,0,.82,2.9h30.891a8.364,8.364,0,0,0,1.009-2.9,17.486,17.486,0,0,0,0-3.846l-7.445-4.853Z" transform="translate(-1341.689 -487.865)" fill="#5b75dc"/>
          <path id="Caminho_2-20" data-name="Caminho 2" d="M1327.209,558.628s-.912,7.665-5.164,13.359c-3.121,4.181-9.413,5.924-11.556,9.834-4.1,7.95-3.114,13.359-3.114,13.359l55.812.082s1.639-3.442-3.032-12.786c-2.084-4.169-9.243-6.782-12.7-11.31a25.364,25.364,0,0,1-4.589-12.539Z" transform="translate(-1307.272 -521.924)" fill="#425fd5"/>
        </g>
      </g>
      <g id="Grupo_24-2" data-name="Grupo 24" transform="translate(108.403 100.066)">
        <g id="Componente_2_15" data-name="Componente 2 – 15" transform="translate(0 0)">
          <circle id="Elipse_1-21" data-name="Elipse 1" cx="14.595" cy="14.595" r="14.595" transform="translate(13.425)" fill="#484741"/>
          <path id="Caminho_1-21" data-name="Caminho 1" d="M1360.95,513.5l-8.069,5.169a26.493,26.493,0,0,0,.315,3.53,15.461,15.461,0,0,0,.82,2.9h30.891a8.359,8.359,0,0,0,1.009-2.9,17.486,17.486,0,0,0,0-3.845l-7.445-4.854Z" transform="translate(-1341.689 -487.865)" fill="#54534d"/>
          <path id="Caminho_2-21" data-name="Caminho 2" d="M1327.209,558.628s-.912,7.665-5.164,13.359c-3.121,4.181-9.413,5.924-11.556,9.834-4.1,7.95-3.114,13.359-3.114,13.359l55.812.082s1.639-3.442-3.032-12.786c-2.084-4.169-9.243-6.782-12.7-11.31a25.364,25.364,0,0,1-4.589-12.539Z" transform="translate(-1307.272 -521.924)" fill="#3e3e3a"/>
        </g>
      </g>
      <g id="Grupo_23-2" data-name="Grupo 23" transform="translate(200.13 100.066)">
        <g id="Componente_1_14" data-name="Componente 1 – 14" transform="translate(0 0)">
          <circle id="Elipse_1-22" data-name="Elipse 1" cx="14.595" cy="14.595" r="14.595" transform="translate(13.425)" fill="#c7c3ab"/>
          <path id="Caminho_1-22" data-name="Caminho 1" d="M1360.95,513.5l-8.069,5.169a26.491,26.491,0,0,0,.315,3.53,15.475,15.475,0,0,0,.82,2.9h30.891a8.364,8.364,0,0,0,1.009-2.9,17.486,17.486,0,0,0,0-3.846l-7.445-4.853Z" transform="translate(-1341.689 -487.865)" fill="#d2ceb4"/>
          <path id="Caminho_2-22" data-name="Caminho 2" d="M1327.209,558.628s-.912,7.665-5.164,13.359c-3.121,4.181-9.413,5.924-11.556,9.834-4.1,7.95-3.114,13.359-3.114,13.359l55.812.082s1.639-3.442-3.032-12.786c-2.084-4.169-9.243-6.782-12.7-11.31a25.364,25.364,0,0,1-4.589-12.539Z" transform="translate(-1307.272 -521.924)" fill="#c6c3ab"/>
        </g>
      </g>
      <g id="Grupo_24-3" data-name="Grupo 24" transform="translate(200.13 191.793)">
        <g id="Componente_2_13" data-name="Componente 2 – 13" transform="translate(0 0)">
          <circle id="Elipse_1-23" data-name="Elipse 1" cx="14.595" cy="14.595" r="14.595" transform="translate(13.425)" fill="#484741"/>
          <path id="Caminho_1-23" data-name="Caminho 1" d="M1360.95,513.5l-8.069,5.169a26.493,26.493,0,0,0,.315,3.53,15.461,15.461,0,0,0,.82,2.9h30.891a8.359,8.359,0,0,0,1.009-2.9,17.486,17.486,0,0,0,0-3.845l-7.445-4.854Z" transform="translate(-1341.689 -487.865)" fill="#54534d"/>
          <path id="Caminho_2-23" data-name="Caminho 2" d="M1327.209,558.628s-.912,7.665-5.164,13.359c-3.121,4.181-9.413,5.924-11.556,9.834-4.1,7.95-3.114,13.359-3.114,13.359l55.812.082s1.639-3.442-3.032-12.786c-2.084-4.169-9.243-6.782-12.7-11.31a25.364,25.364,0,0,1-4.589-12.539Z" transform="translate(-1307.272 -521.924)" fill="#3e3e3a"/>
        </g>
      </g>
      <g id="Grupo_23-3" data-name="Grupo 23" transform="translate(108.403 191.793)">
        <g id="Componente_1_12" data-name="Componente 1 – 12" transform="translate(0 0)">
          <circle id="Elipse_1-24" data-name="Elipse 1" cx="14.595" cy="14.595" r="14.595" transform="translate(13.425)" fill="#c7c3ab"/>
          <path id="Caminho_1-24" data-name="Caminho 1" d="M1360.95,513.5l-8.069,5.169a26.491,26.491,0,0,0,.315,3.53,15.475,15.475,0,0,0,.82,2.9h30.891a8.364,8.364,0,0,0,1.009-2.9,17.486,17.486,0,0,0,0-3.846l-7.445-4.853Z" transform="translate(-1341.689 -487.865)" fill="#d2ceb4"/>
          <path id="Caminho_2-24" data-name="Caminho 2" d="M1327.209,558.628s-.912,7.665-5.164,13.359c-3.121,4.181-9.413,5.924-11.556,9.834-4.1,7.95-3.114,13.359-3.114,13.359l55.812.082s1.639-3.442-3.032-12.786c-2.084-4.169-9.243-6.782-12.7-11.31a25.364,25.364,0,0,1-4.589-12.539Z" transform="translate(-1307.272 -521.924)" fill="#c6c3ab"/>
        </g>
      </g>
      <g id="Grupo_24-4" data-name="Grupo 24" transform="translate(200.13 8.339)">
        <g id="Componente_2_17" data-name="Componente 2 – 17" transform="translate(0 0)">
          <circle id="Elipse_1-25" data-name="Elipse 1" cx="14.595" cy="14.595" r="14.595" transform="translate(13.425)" fill="#484741"/>
          <path id="Caminho_1-25" data-name="Caminho 1" d="M1360.95,513.5l-8.069,5.169a26.493,26.493,0,0,0,.315,3.53,15.461,15.461,0,0,0,.82,2.9h30.891a8.359,8.359,0,0,0,1.009-2.9,17.486,17.486,0,0,0,0-3.845l-7.445-4.854Z" transform="translate(-1341.689 -487.865)" fill="#54534d"/>
          <path id="Caminho_2-25" data-name="Caminho 2" d="M1327.209,558.628s-.912,7.665-5.164,13.359c-3.121,4.181-9.413,5.924-11.556,9.834-4.1,7.95-3.114,13.359-3.114,13.359l55.812.082s1.639-3.442-3.032-12.786c-2.084-4.169-9.243-6.782-12.7-11.31a25.364,25.364,0,0,1-4.589-12.539Z" transform="translate(-1307.272 -521.924)" fill="#3e3e3a"/>
        </g>
      </g>
      <g id="Grupo_23-4" data-name="Grupo 23" transform="translate(108.403 8.339)">
        <g id="Componente_1_15" data-name="Componente 1 – 15" transform="translate(0 0)">
          <circle id="Elipse_1-26" data-name="Elipse 1" cx="14.595" cy="14.595" r="14.595" transform="translate(13.425)" fill="#c7c3ab"/>
          <path id="Caminho_1-26" data-name="Caminho 1" d="M1360.95,513.5l-8.069,5.169a26.491,26.491,0,0,0,.315,3.53,15.475,15.475,0,0,0,.82,2.9h30.891a8.364,8.364,0,0,0,1.009-2.9,17.486,17.486,0,0,0,0-3.846l-7.445-4.853Z" transform="translate(-1341.689 -487.865)" fill="#d2ceb4"/>
          <path id="Caminho_2-26" data-name="Caminho 2" d="M1327.209,558.628s-.912,7.665-5.164,13.359c-3.121,4.181-9.413,5.924-11.556,9.834-4.1,7.95-3.114,13.359-3.114,13.359l55.812.082s1.639-3.442-3.032-12.786c-2.084-4.169-9.243-6.782-12.7-11.31a25.364,25.364,0,0,1-4.589-12.539Z" transform="translate(-1307.272 -521.924)" fill="#c6c3ab"/>
        </g>
      </g>
      <g id="Grupo_20" data-name="Grupo 20" transform="translate(473.457 371.54)">
        <g id="Componente_1_7" data-name="Componente 1 – 7" transform="translate(0 0)">
          <circle id="Elipse_1-27" data-name="Elipse 1" cx="14.595" cy="14.595" r="14.595" transform="translate(13.425)" fill="#c7c3ab"/>
          <path id="Caminho_1-27" data-name="Caminho 1" d="M1360.95,513.5l-8.069,5.169a26.491,26.491,0,0,0,.315,3.53,15.475,15.475,0,0,0,.82,2.9h30.891a8.364,8.364,0,0,0,1.009-2.9,17.486,17.486,0,0,0,0-3.846l-7.445-4.853Z" transform="translate(-1341.689 -487.865)" fill="#d2ceb4"/>
          <path id="Caminho_2-27" data-name="Caminho 2" d="M1327.209,558.628s-.912,7.665-5.164,13.359c-3.121,4.181-9.413,5.924-11.556,9.834-4.1,7.95-3.114,13.359-3.114,13.359l55.812.082s1.639-3.442-3.032-12.786c-2.084-4.169-9.243-6.782-12.7-11.31a25.364,25.364,0,0,1-4.589-12.539Z" transform="translate(-1307.272 -521.924)" fill="#c6c3ab"/>
        </g>
      </g>
      <g id="Grupo_22" data-name="Grupo 22" transform="translate(564.258 281.667)">
        <g id="Componente_1_8" data-name="Componente 1 – 8" transform="translate(0 0)">
          <circle id="Elipse_1-28" data-name="Elipse 1" cx="14.595" cy="14.595" r="14.595" transform="translate(13.425)" fill="#c7c3ab"/>
          <path id="Caminho_1-28" data-name="Caminho 1" d="M1360.95,513.5l-8.069,5.169a26.491,26.491,0,0,0,.315,3.53,15.475,15.475,0,0,0,.82,2.9h30.891a8.364,8.364,0,0,0,1.009-2.9,17.486,17.486,0,0,0,0-3.846l-7.445-4.853Z" transform="translate(-1341.689 -487.865)" fill="#d2ceb4"/>
          <path id="Caminho_2-28" data-name="Caminho 2" d="M1327.209,558.628s-.912,7.665-5.164,13.359c-3.121,4.181-9.413,5.924-11.556,9.834-4.1,7.95-3.114,13.359-3.114,13.359l55.812.082s1.639-3.442-3.032-12.786c-2.084-4.169-9.243-6.782-12.7-11.31a25.364,25.364,0,0,1-4.589-12.539Z" transform="translate(-1307.272 -521.924)" fill="#c6c3ab"/>
        </g>
      </g>
      <g id="Grupo_30" data-name="Grupo 30" transform="translate(564.258 100.066)">
        <g id="Componente_1_13" data-name="Componente 1 – 13" transform="translate(0 0)">
          <circle id="Elipse_1-29" data-name="Elipse 1" cx="14.595" cy="14.595" r="14.595" transform="translate(13.425)" fill="#c7c3ab"/>
          <path id="Caminho_1-29" data-name="Caminho 1" d="M1360.95,513.5l-8.069,5.169a26.491,26.491,0,0,0,.315,3.53,15.475,15.475,0,0,0,.82,2.9h30.891a8.364,8.364,0,0,0,1.009-2.9,17.486,17.486,0,0,0,0-3.846l-7.445-4.853Z" transform="translate(-1341.689 -487.865)" fill="#d2ceb4"/>
          <path id="Caminho_2-29" data-name="Caminho 2" d="M1327.209,558.628s-.912,7.665-5.164,13.359c-3.121,4.181-9.413,5.924-11.556,9.834-4.1,7.95-3.114,13.359-3.114,13.359l55.812.082s1.639-3.442-3.032-12.786c-2.084-4.169-9.243-6.782-12.7-11.31a25.364,25.364,0,0,1-4.589-12.539Z" transform="translate(-1307.272 -521.924)" fill="#c6c3ab"/>
        </g>
      </g>
      <g id="Grupo_34" data-name="Grupo 34" transform="translate(654.132 6.486)">
        <g id="Componente_1_16" data-name="Componente 1 – 16" transform="translate(0 0)">
          <circle id="Elipse_1-30" data-name="Elipse 1" cx="14.595" cy="14.595" r="14.595" transform="translate(13.425)" fill="#c7c3ab"/>
          <path id="Caminho_1-30" data-name="Caminho 1" d="M1360.95,513.5l-8.069,5.169a26.491,26.491,0,0,0,.315,3.53,15.475,15.475,0,0,0,.82,2.9h30.891a8.364,8.364,0,0,0,1.009-2.9,17.486,17.486,0,0,0,0-3.846l-7.445-4.853Z" transform="translate(-1341.689 -487.865)" fill="#d2ceb4"/>
          <path id="Caminho_2-30" data-name="Caminho 2" d="M1327.209,558.628s-.912,7.665-5.164,13.359c-3.121,4.181-9.413,5.924-11.556,9.834-4.1,7.95-3.114,13.359-3.114,13.359l55.812.082s1.639-3.442-3.032-12.786c-2.084-4.169-9.243-6.782-12.7-11.31a25.364,25.364,0,0,1-4.589-12.539Z" transform="translate(-1307.272 -521.924)" fill="#c6c3ab"/>
        </g>
      </g>
      <g id="Grupo_27" data-name="Grupo 27" transform="translate(472.531 190.866)">
        <g id="Componente_1_11" data-name="Componente 1 – 11" transform="translate(0 0)">
          <circle id="Elipse_1-31" data-name="Elipse 1" cx="14.595" cy="14.595" r="14.595" transform="translate(13.425)" fill="#c7c3ab"/>
          <path id="Caminho_1-31" data-name="Caminho 1" d="M1360.95,513.5l-8.069,5.169a26.491,26.491,0,0,0,.315,3.53,15.475,15.475,0,0,0,.82,2.9h30.891a8.364,8.364,0,0,0,1.009-2.9,17.486,17.486,0,0,0,0-3.846l-7.445-4.853Z" transform="translate(-1341.689 -487.865)" fill="#d2ceb4"/>
          <path id="Caminho_2-31" data-name="Caminho 2" d="M1327.209,558.628s-.912,7.665-5.164,13.359c-3.121,4.181-9.413,5.924-11.556,9.834-4.1,7.95-3.114,13.359-3.114,13.359l55.812.082s1.639-3.442-3.032-12.786c-2.084-4.169-9.243-6.782-12.7-11.31a25.364,25.364,0,0,1-4.589-12.539Z" transform="translate(-1307.272 -521.924)" fill="#c6c3ab"/>
        </g>
      </g>
      <g id="Grupo_26" data-name="Grupo 26" transform="translate(654.132 191.793)">
        <g id="Componente_1_10" data-name="Componente 1 – 10" transform="translate(0 0)">
          <circle id="Elipse_1-32" data-name="Elipse 1" cx="14.595" cy="14.595" r="14.595" transform="translate(13.425)" fill="#c7c3ab"/>
          <path id="Caminho_1-32" data-name="Caminho 1" d="M1360.95,513.5l-8.069,5.169a26.491,26.491,0,0,0,.315,3.53,15.475,15.475,0,0,0,.82,2.9h30.891a8.364,8.364,0,0,0,1.009-2.9,17.486,17.486,0,0,0,0-3.846l-7.445-4.853Z" transform="translate(-1341.689 -487.865)" fill="#d2ceb4"/>
          <path id="Caminho_2-32" data-name="Caminho 2" d="M1327.209,558.628s-.912,7.665-5.164,13.359c-3.121,4.181-9.413,5.924-11.556,9.834-4.1,7.95-3.114,13.359-3.114,13.359l55.812.082s1.639-3.442-3.032-12.786c-2.084-4.169-9.243-6.782-12.7-11.31a25.364,25.364,0,0,1-4.589-12.539Z" transform="translate(-1307.272 -521.924)" fill="#c6c3ab"/>
        </g>
      </g>
      <g id="Grupo_13-3" data-name="Grupo 13" transform="translate(108.403 280.74)">
        <g id="Componente_2_6-3" data-name="Componente 2 – 6" transform="translate(0 0)">
          <circle id="Elipse_1-33" data-name="Elipse 1" cx="14.595" cy="14.595" r="14.595" transform="translate(13.425)" fill="#b70000"/>
          <path id="Caminho_1-33" data-name="Caminho 1" d="M1360.95,513.5l-8.069,5.169a26.493,26.493,0,0,0,.315,3.53,15.461,15.461,0,0,0,.82,2.9h30.891a8.359,8.359,0,0,0,1.009-2.9,17.486,17.486,0,0,0,0-3.845l-7.445-4.854Z" transform="translate(-1341.689 -487.865)" fill="#e62b2b"/>
          <path id="Caminho_2-33" data-name="Caminho 2" d="M1327.209,558.628s-.912,7.665-5.164,13.359c-3.121,4.181-9.413,5.924-11.556,9.834-4.1,7.95-3.114,13.359-3.114,13.359l55.812.082s1.639-3.442-3.032-12.786c-2.084-4.169-9.243-6.782-12.7-11.31a25.364,25.364,0,0,1-4.589-12.539Z" transform="translate(-1307.272 -521.924)" fill="#e60000"/>
        </g>
      </g>
      <g id="Grupo_13-4" data-name="Grupo 13" transform="translate(200.13 191.793)">
        <g id="Componente_2_6-4" data-name="Componente 2 – 6" transform="translate(0 0)">
          <circle id="Elipse_1-34" data-name="Elipse 1" cx="14.595" cy="14.595" r="14.595" transform="translate(13.425)" fill="#b70000"/>
          <path id="Caminho_1-34" data-name="Caminho 1" d="M1360.95,513.5l-8.069,5.169a26.493,26.493,0,0,0,.315,3.53,15.461,15.461,0,0,0,.82,2.9h30.891a8.359,8.359,0,0,0,1.009-2.9,17.486,17.486,0,0,0,0-3.845l-7.445-4.854Z" transform="translate(-1341.689 -487.865)" fill="#e62b2b"/>
          <path id="Caminho_2-34" data-name="Caminho 2" d="M1327.209,558.628s-.912,7.665-5.164,13.359c-3.121,4.181-9.413,5.924-11.556,9.834-4.1,7.95-3.114,13.359-3.114,13.359l55.812.082s1.639-3.442-3.032-12.786c-2.084-4.169-9.243-6.782-12.7-11.31a25.364,25.364,0,0,1-4.589-12.539Z" transform="translate(-1307.272 -521.924)" fill="#e60000"/>
        </g>
      </g>
      <g id="Grupo_13-5" data-name="Grupo 13" transform="translate(108.403 100.066)">
        <g id="Componente_2_6-5" data-name="Componente 2 – 6" transform="translate(0 0)">
          <circle id="Elipse_1-35" data-name="Elipse 1" cx="14.595" cy="14.595" r="14.595" transform="translate(13.425)" fill="#b70000"/>
          <path id="Caminho_1-35" data-name="Caminho 1" d="M1360.95,513.5l-8.069,5.169a26.493,26.493,0,0,0,.315,3.53,15.461,15.461,0,0,0,.82,2.9h30.891a8.359,8.359,0,0,0,1.009-2.9,17.486,17.486,0,0,0,0-3.845l-7.445-4.854Z" transform="translate(-1341.689 -487.865)" fill="#e62b2b"/>
          <path id="Caminho_2-35" data-name="Caminho 2" d="M1327.209,558.628s-.912,7.665-5.164,13.359c-3.121,4.181-9.413,5.924-11.556,9.834-4.1,7.95-3.114,13.359-3.114,13.359l55.812.082s1.639-3.442-3.032-12.786c-2.084-4.169-9.243-6.782-12.7-11.31a25.364,25.364,0,0,1-4.589-12.539Z" transform="translate(-1307.272 -521.924)" fill="#e60000"/>
        </g>
      </g>
      <g id="Grupo_13-6" data-name="Grupo 13" transform="translate(200.13 8.339)">
        <g id="Componente_2_6-6" data-name="Componente 2 – 6" transform="translate(0 0)">
          <circle id="Elipse_1-36" data-name="Elipse 1" cx="14.595" cy="14.595" r="14.595" transform="translate(13.425)" fill="#b70000"/>
          <path id="Caminho_1-36" data-name="Caminho 1" d="M1360.95,513.5l-8.069,5.169a26.493,26.493,0,0,0,.315,3.53,15.461,15.461,0,0,0,.82,2.9h30.891a8.359,8.359,0,0,0,1.009-2.9,17.486,17.486,0,0,0,0-3.845l-7.445-4.854Z" transform="translate(-1341.689 -487.865)" fill="#e62b2b"/>
          <path id="Caminho_2-36" data-name="Caminho 2" d="M1327.209,558.628s-.912,7.665-5.164,13.359c-3.121,4.181-9.413,5.924-11.556,9.834-4.1,7.95-3.114,13.359-3.114,13.359l55.812.082s1.639-3.442-3.032-12.786c-2.084-4.169-9.243-6.782-12.7-11.31a25.364,25.364,0,0,1-4.589-12.539Z" transform="translate(-1307.272 -521.924)" fill="#e60000"/>
        </g>
      </g>
      <g id="Grupo_13-7" data-name="Grupo 13" transform="translate(290.004 100.066)">
        <g id="Componente_2_6-7" data-name="Componente 2 – 6" transform="translate(0 0)">
          <circle id="Elipse_1-37" data-name="Elipse 1" cx="14.595" cy="14.595" r="14.595" transform="translate(13.425)" fill="#b70000"/>
          <path id="Caminho_1-37" data-name="Caminho 1" d="M1360.95,513.5l-8.069,5.169a26.493,26.493,0,0,0,.315,3.53,15.461,15.461,0,0,0,.82,2.9h30.891a8.359,8.359,0,0,0,1.009-2.9,17.486,17.486,0,0,0,0-3.845l-7.445-4.854Z" transform="translate(-1341.689 -487.865)" fill="#e62b2b"/>
          <path id="Caminho_2-37" data-name="Caminho 2" d="M1327.209,558.628s-.912,7.665-5.164,13.359c-3.121,4.181-9.413,5.924-11.556,9.834-4.1,7.95-3.114,13.359-3.114,13.359l55.812.082s1.639-3.442-3.032-12.786c-2.084-4.169-9.243-6.782-12.7-11.31a25.364,25.364,0,0,1-4.589-12.539Z" transform="translate(-1307.272 -521.924)" fill="#e60000"/>
        </g>
      </g>
      <g id="Grupo_13-8" data-name="Grupo 13" transform="translate(380.804 371.54)">
        <g id="Componente_2_6-8" data-name="Componente 2 – 6" transform="translate(0 0)">
          <circle id="Elipse_1-38" data-name="Elipse 1" cx="14.595" cy="14.595" r="14.595" transform="translate(13.425)" fill="#b70000"/>
          <path id="Caminho_1-38" data-name="Caminho 1" d="M1360.95,513.5l-8.069,5.169a26.493,26.493,0,0,0,.315,3.53,15.461,15.461,0,0,0,.82,2.9h30.891a8.359,8.359,0,0,0,1.009-2.9,17.486,17.486,0,0,0,0-3.845l-7.445-4.854Z" transform="translate(-1341.689 -487.865)" fill="#e62b2b"/>
          <path id="Caminho_2-38" data-name="Caminho 2" d="M1327.209,558.628s-.912,7.665-5.164,13.359c-3.121,4.181-9.413,5.924-11.556,9.834-4.1,7.95-3.114,13.359-3.114,13.359l55.812.082s1.639-3.442-3.032-12.786c-2.084-4.169-9.243-6.782-12.7-11.31a25.364,25.364,0,0,1-4.589-12.539Z" transform="translate(-1307.272 -521.924)" fill="#e60000"/>
        </g>
      </g>
      <g id="Grupo_13-9" data-name="Grupo 13" transform="translate(200.13 554.994)">
        <g id="Componente_2_6-9" data-name="Componente 2 – 6" transform="translate(0 0)">
          <circle id="Elipse_1-39" data-name="Elipse 1" cx="14.595" cy="14.595" r="14.595" transform="translate(13.425)" fill="#b70000"/>
          <path id="Caminho_1-39" data-name="Caminho 1" d="M1360.95,513.5l-8.069,5.169a26.493,26.493,0,0,0,.315,3.53,15.461,15.461,0,0,0,.82,2.9h30.891a8.359,8.359,0,0,0,1.009-2.9,17.486,17.486,0,0,0,0-3.845l-7.445-4.854Z" transform="translate(-1341.689 -487.865)" fill="#e62b2b"/>
          <path id="Caminho_2-39" data-name="Caminho 2" d="M1327.209,558.628s-.912,7.665-5.164,13.359c-3.121,4.181-9.413,5.924-11.556,9.834-4.1,7.95-3.114,13.359-3.114,13.359l55.812.082s1.639-3.442-3.032-12.786c-2.084-4.169-9.243-6.782-12.7-11.31a25.364,25.364,0,0,1-4.589-12.539Z" transform="translate(-1307.272 -521.924)" fill="#e60000"/>
        </g>
      </g>
      <g id="Grupo_13-10" data-name="Grupo 13" transform="translate(108.403 645.795)">
        <g id="Componente_2_6-10" data-name="Componente 2 – 6" transform="translate(0 0)">
          <circle id="Elipse_1-40" data-name="Elipse 1" cx="14.595" cy="14.595" r="14.595" transform="translate(13.425)" fill="#b70000"/>
          <path id="Caminho_1-40" data-name="Caminho 1" d="M1360.95,513.5l-8.069,5.169a26.493,26.493,0,0,0,.315,3.53,15.461,15.461,0,0,0,.82,2.9h30.891a8.359,8.359,0,0,0,1.009-2.9,17.486,17.486,0,0,0,0-3.845l-7.445-4.854Z" transform="translate(-1341.689 -487.865)" fill="#e62b2b"/>
          <path id="Caminho_2-40" data-name="Caminho 2" d="M1327.209,558.628s-.912,7.665-5.164,13.359c-3.121,4.181-9.413,5.924-11.556,9.834-4.1,7.95-3.114,13.359-3.114,13.359l55.812.082s1.639-3.442-3.032-12.786c-2.084-4.169-9.243-6.782-12.7-11.31a25.364,25.364,0,0,1-4.589-12.539Z" transform="translate(-1307.272 -521.924)" fill="#e60000"/>
        </g>
      </g>
      <g id="Grupo_13-11" data-name="Grupo 13" transform="translate(472.531 645.795)">
        <g id="Componente_2_6-11" data-name="Componente 2 – 6" transform="translate(0 0)">
          <circle id="Elipse_1-41" data-name="Elipse 1" cx="14.595" cy="14.595" r="14.595" transform="translate(13.425)" fill="#b70000"/>
          <path id="Caminho_1-41" data-name="Caminho 1" d="M1360.95,513.5l-8.069,5.169a26.493,26.493,0,0,0,.315,3.53,15.461,15.461,0,0,0,.82,2.9h30.891a8.359,8.359,0,0,0,1.009-2.9,17.486,17.486,0,0,0,0-3.845l-7.445-4.854Z" transform="translate(-1341.689 -487.865)" fill="#e62b2b"/>
          <path id="Caminho_2-41" data-name="Caminho 2" d="M1327.209,558.628s-.912,7.665-5.164,13.359c-3.121,4.181-9.413,5.924-11.556,9.834-4.1,7.95-3.114,13.359-3.114,13.359l55.812.082s1.639-3.442-3.032-12.786c-2.084-4.169-9.243-6.782-12.7-11.31a25.364,25.364,0,0,1-4.589-12.539Z" transform="translate(-1307.272 -521.924)" fill="#e60000"/>
        </g>
      </g>
      <g id="Grupo_13-12" data-name="Grupo 13" transform="translate(564.258 554.994)">
        <g id="Componente_2_6-12" data-name="Componente 2 – 6" transform="translate(0 0)">
          <circle id="Elipse_1-42" data-name="Elipse 1" cx="14.595" cy="14.595" r="14.595" transform="translate(13.425)" fill="#b70000"/>
          <path id="Caminho_1-42" data-name="Caminho 1" d="M1360.95,513.5l-8.069,5.169a26.493,26.493,0,0,0,.315,3.53,15.461,15.461,0,0,0,.82,2.9h30.891a8.359,8.359,0,0,0,1.009-2.9,17.486,17.486,0,0,0,0-3.845l-7.445-4.854Z" transform="translate(-1341.689 -487.865)" fill="#e62b2b"/>
          <path id="Caminho_2-42" data-name="Caminho 2" d="M1327.209,558.628s-.912,7.665-5.164,13.359c-3.121,4.181-9.413,5.924-11.556,9.834-4.1,7.95-3.114,13.359-3.114,13.359l55.812.082s1.639-3.442-3.032-12.786c-2.084-4.169-9.243-6.782-12.7-11.31a25.364,25.364,0,0,1-4.589-12.539Z" transform="translate(-1307.272 -521.924)" fill="#e60000"/>
        </g>
      </g>
      <g id="Grupo_13-13" data-name="Grupo 13" transform="translate(654.132 463.267)">
        <g id="Componente_2_6-13" data-name="Componente 2 – 6" transform="translate(0 0)">
          <circle id="Elipse_1-43" data-name="Elipse 1" cx="14.595" cy="14.595" r="14.595" transform="translate(13.425)" fill="#b70000"/>
          <path id="Caminho_1-43" data-name="Caminho 1" d="M1360.95,513.5l-8.069,5.169a26.493,26.493,0,0,0,.315,3.53,15.461,15.461,0,0,0,.82,2.9h30.891a8.359,8.359,0,0,0,1.009-2.9,17.486,17.486,0,0,0,0-3.845l-7.445-4.854Z" transform="translate(-1341.689 -487.865)" fill="#e62b2b"/>
          <path id="Caminho_2-43" data-name="Caminho 2" d="M1327.209,558.628s-.912,7.665-5.164,13.359c-3.121,4.181-9.413,5.924-11.556,9.834-4.1,7.95-3.114,13.359-3.114,13.359l55.812.082s1.639-3.442-3.032-12.786c-2.084-4.169-9.243-6.782-12.7-11.31a25.364,25.364,0,0,1-4.589-12.539Z" transform="translate(-1307.272 -521.924)" fill="#e60000"/>
        </g>
      </g>
      <g id="Grupo_13-14" data-name="Grupo 13" transform="translate(564.258 371.54)">
        <g id="Componente_2_6-14" data-name="Componente 2 – 6" transform="translate(0 0)">
          <circle id="Elipse_1-44" data-name="Elipse 1" cx="14.595" cy="14.595" r="14.595" transform="translate(13.425)" fill="#b70000"/>
          <path id="Caminho_1-44" data-name="Caminho 1" d="M1360.95,513.5l-8.069,5.169a26.493,26.493,0,0,0,.315,3.53,15.461,15.461,0,0,0,.82,2.9h30.891a8.359,8.359,0,0,0,1.009-2.9,17.486,17.486,0,0,0,0-3.845l-7.445-4.854Z" transform="translate(-1341.689 -487.865)" fill="#e62b2b"/>
          <path id="Caminho_2-44" data-name="Caminho 2" d="M1327.209,558.628s-.912,7.665-5.164,13.359c-3.121,4.181-9.413,5.924-11.556,9.834-4.1,7.95-3.114,13.359-3.114,13.359l55.812.082s1.639-3.442-3.032-12.786c-2.084-4.169-9.243-6.782-12.7-11.31a25.364,25.364,0,0,1-4.589-12.539Z" transform="translate(-1307.272 -521.924)" fill="#e60000"/>
        </g>
      </g>
      <g id="Grupo_13-15" data-name="Grupo 13" transform="translate(654.132 280.74)">
        <g id="Componente_2_6-15" data-name="Componente 2 – 6" transform="translate(0 0)">
          <circle id="Elipse_1-45" data-name="Elipse 1" cx="14.595" cy="14.595" r="14.595" transform="translate(13.425)" fill="#b70000"/>
          <path id="Caminho_1-45" data-name="Caminho 1" d="M1360.95,513.5l-8.069,5.169a26.493,26.493,0,0,0,.315,3.53,15.461,15.461,0,0,0,.82,2.9h30.891a8.359,8.359,0,0,0,1.009-2.9,17.486,17.486,0,0,0,0-3.845l-7.445-4.854Z" transform="translate(-1341.689 -487.865)" fill="#e62b2b"/>
          <path id="Caminho_2-45" data-name="Caminho 2" d="M1327.209,558.628s-.912,7.665-5.164,13.359c-3.121,4.181-9.413,5.924-11.556,9.834-4.1,7.95-3.114,13.359-3.114,13.359l55.812.082s1.639-3.442-3.032-12.786c-2.084-4.169-9.243-6.782-12.7-11.31a25.364,25.364,0,0,1-4.589-12.539Z" transform="translate(-1307.272 -521.924)" fill="#e60000"/>
        </g>
      </g>
      <g id="Grupo_13-16" data-name="Grupo 13" transform="translate(654.132 100.066)">
        <g id="Componente_2_6-16" data-name="Componente 2 – 6" transform="translate(0 0)">
          <circle id="Elipse_1-46" data-name="Elipse 1" cx="14.595" cy="14.595" r="14.595" transform="translate(13.425)" fill="#b70000"/>
          <path id="Caminho_1-46" data-name="Caminho 1" d="M1360.95,513.5l-8.069,5.169a26.493,26.493,0,0,0,.315,3.53,15.461,15.461,0,0,0,.82,2.9h30.891a8.359,8.359,0,0,0,1.009-2.9,17.486,17.486,0,0,0,0-3.845l-7.445-4.854Z" transform="translate(-1341.689 -487.865)" fill="#e62b2b"/>
          <path id="Caminho_2-46" data-name="Caminho 2" d="M1327.209,558.628s-.912,7.665-5.164,13.359c-3.121,4.181-9.413,5.924-11.556,9.834-4.1,7.95-3.114,13.359-3.114,13.359l55.812.082s1.639-3.442-3.032-12.786c-2.084-4.169-9.243-6.782-12.7-11.31a25.364,25.364,0,0,1-4.589-12.539Z" transform="translate(-1307.272 -521.924)" fill="#e60000"/>
        </g>
      </g>
      <g id="Grupo_23-5" data-name="Grupo 23" transform="translate(108.403 191.793)">
        <g id="Componente_1_9-2" data-name="Componente 1 – 9" transform="translate(0 0)">
          <circle id="Elipse_1-47" data-name="Elipse 1" cx="14.595" cy="14.595" r="14.595" transform="translate(13.425)" fill="#2c4ccc"/>
          <path id="Caminho_1-47" data-name="Caminho 1" d="M1360.95,513.5l-8.069,5.169a26.491,26.491,0,0,0,.315,3.53,15.475,15.475,0,0,0,.82,2.9h30.891a8.364,8.364,0,0,0,1.009-2.9,17.486,17.486,0,0,0,0-3.846l-7.445-4.853Z" transform="translate(-1341.689 -487.865)" fill="#5b75dc"/>
          <path id="Caminho_2-47" data-name="Caminho 2" d="M1327.209,558.628s-.912,7.665-5.164,13.359c-3.121,4.181-9.413,5.924-11.556,9.834-4.1,7.95-3.114,13.359-3.114,13.359l55.812.082s1.639-3.442-3.032-12.786c-2.084-4.169-9.243-6.782-12.7-11.31a25.364,25.364,0,0,1-4.589-12.539Z" transform="translate(-1307.272 -521.924)" fill="#425fd5"/>
        </g>
      </g>
      <g id="Grupo_23-6" data-name="Grupo 23" transform="translate(200.13 100.066)">
        <g id="Componente_1_9-3" data-name="Componente 1 – 9" transform="translate(0 0)">
          <circle id="Elipse_1-48" data-name="Elipse 1" cx="14.595" cy="14.595" r="14.595" transform="translate(13.425)" fill="#2c4ccc"/>
          <path id="Caminho_1-48" data-name="Caminho 1" d="M1360.95,513.5l-8.069,5.169a26.491,26.491,0,0,0,.315,3.53,15.475,15.475,0,0,0,.82,2.9h30.891a8.364,8.364,0,0,0,1.009-2.9,17.486,17.486,0,0,0,0-3.846l-7.445-4.853Z" transform="translate(-1341.689 -487.865)" fill="#5b75dc"/>
          <path id="Caminho_2-48" data-name="Caminho 2" d="M1327.209,558.628s-.912,7.665-5.164,13.359c-3.121,4.181-9.413,5.924-11.556,9.834-4.1,7.95-3.114,13.359-3.114,13.359l55.812.082s1.639-3.442-3.032-12.786c-2.084-4.169-9.243-6.782-12.7-11.31a25.364,25.364,0,0,1-4.589-12.539Z" transform="translate(-1307.272 -521.924)" fill="#425fd5"/>
        </g>
      </g>
      <g id="Grupo_23-7" data-name="Grupo 23" transform="translate(108.403 8.339)">
        <g id="Componente_1_9-4" data-name="Componente 1 – 9" transform="translate(0 0)">
          <circle id="Elipse_1-49" data-name="Elipse 1" cx="14.595" cy="14.595" r="14.595" transform="translate(13.425)" fill="#2c4ccc"/>
          <path id="Caminho_1-49" data-name="Caminho 1" d="M1360.95,513.5l-8.069,5.169a26.491,26.491,0,0,0,.315,3.53,15.475,15.475,0,0,0,.82,2.9h30.891a8.364,8.364,0,0,0,1.009-2.9,17.486,17.486,0,0,0,0-3.846l-7.445-4.853Z" transform="translate(-1341.689 -487.865)" fill="#5b75dc"/>
          <path id="Caminho_2-49" data-name="Caminho 2" d="M1327.209,558.628s-.912,7.665-5.164,13.359c-3.121,4.181-9.413,5.924-11.556,9.834-4.1,7.95-3.114,13.359-3.114,13.359l55.812.082s1.639-3.442-3.032-12.786c-2.084-4.169-9.243-6.782-12.7-11.31a25.364,25.364,0,0,1-4.589-12.539Z" transform="translate(-1307.272 -521.924)" fill="#425fd5"/>
        </g>
      </g>
      <g id="Grupo_23-8" data-name="Grupo 23" transform="translate(108.403 372.467)">
        <g id="Componente_1_9-5" data-name="Componente 1 – 9" transform="translate(0 0)">
          <circle id="Elipse_1-50" data-name="Elipse 1" cx="14.595" cy="14.595" r="14.595" transform="translate(13.425)" fill="#2c4ccc"/>
          <path id="Caminho_1-50" data-name="Caminho 1" d="M1360.95,513.5l-8.069,5.169a26.491,26.491,0,0,0,.315,3.53,15.475,15.475,0,0,0,.82,2.9h30.891a8.364,8.364,0,0,0,1.009-2.9,17.486,17.486,0,0,0,0-3.846l-7.445-4.853Z" transform="translate(-1341.689 -487.865)" fill="#5b75dc"/>
          <path id="Caminho_2-50" data-name="Caminho 2" d="M1327.209,558.628s-.912,7.665-5.164,13.359c-3.121,4.181-9.413,5.924-11.556,9.834-4.1,7.95-3.114,13.359-3.114,13.359l55.812.082s1.639-3.442-3.032-12.786c-2.084-4.169-9.243-6.782-12.7-11.31a25.364,25.364,0,0,1-4.589-12.539Z" transform="translate(-1307.272 -521.924)" fill="#425fd5"/>
        </g>
      </g>
      <g id="Grupo_23-9" data-name="Grupo 23" transform="translate(108.403 554.994)">
        <g id="Componente_1_9-6" data-name="Componente 1 – 9" transform="translate(0 0)">
          <circle id="Elipse_1-51" data-name="Elipse 1" cx="14.595" cy="14.595" r="14.595" transform="translate(13.425)" fill="#2c4ccc"/>
          <path id="Caminho_1-51" data-name="Caminho 1" d="M1360.95,513.5l-8.069,5.169a26.491,26.491,0,0,0,.315,3.53,15.475,15.475,0,0,0,.82,2.9h30.891a8.364,8.364,0,0,0,1.009-2.9,17.486,17.486,0,0,0,0-3.846l-7.445-4.853Z" transform="translate(-1341.689 -487.865)" fill="#5b75dc"/>
          <path id="Caminho_2-51" data-name="Caminho 2" d="M1327.209,558.628s-.912,7.665-5.164,13.359c-3.121,4.181-9.413,5.924-11.556,9.834-4.1,7.95-3.114,13.359-3.114,13.359l55.812.082s1.639-3.442-3.032-12.786c-2.084-4.169-9.243-6.782-12.7-11.31a25.364,25.364,0,0,1-4.589-12.539Z" transform="translate(-1307.272 -521.924)" fill="#425fd5"/>
        </g>
      </g>
      <g id="Grupo_23-10" data-name="Grupo 23" transform="translate(200.13 463.267)">
        <g id="Componente_1_9-7" data-name="Componente 1 – 9" transform="translate(0 0)">
          <circle id="Elipse_1-52" data-name="Elipse 1" cx="14.595" cy="14.595" r="14.595" transform="translate(13.425)" fill="#2c4ccc"/>
          <path id="Caminho_1-52" data-name="Caminho 1" d="M1360.95,513.5l-8.069,5.169a26.491,26.491,0,0,0,.315,3.53,15.475,15.475,0,0,0,.82,2.9h30.891a8.364,8.364,0,0,0,1.009-2.9,17.486,17.486,0,0,0,0-3.846l-7.445-4.853Z" transform="translate(-1341.689 -487.865)" fill="#5b75dc"/>
          <path id="Caminho_2-52" data-name="Caminho 2" d="M1327.209,558.628s-.912,7.665-5.164,13.359c-3.121,4.181-9.413,5.924-11.556,9.834-4.1,7.95-3.114,13.359-3.114,13.359l55.812.082s1.639-3.442-3.032-12.786c-2.084-4.169-9.243-6.782-12.7-11.31a25.364,25.364,0,0,1-4.589-12.539Z" transform="translate(-1307.272 -521.924)" fill="#425fd5"/>
        </g>
      </g>
      <g id="Grupo_23-11" data-name="Grupo 23" transform="translate(290.004 554.994)">
        <g id="Componente_1_9-8" data-name="Componente 1 – 9" transform="translate(0 0)">
          <circle id="Elipse_1-53" data-name="Elipse 1" cx="14.595" cy="14.595" r="14.595" transform="translate(13.425)" fill="#2c4ccc"/>
          <path id="Caminho_1-53" data-name="Caminho 1" d="M1360.95,513.5l-8.069,5.169a26.491,26.491,0,0,0,.315,3.53,15.475,15.475,0,0,0,.82,2.9h30.891a8.364,8.364,0,0,0,1.009-2.9,17.486,17.486,0,0,0,0-3.846l-7.445-4.853Z" transform="translate(-1341.689 -487.865)" fill="#5b75dc"/>
          <path id="Caminho_2-53" data-name="Caminho 2" d="M1327.209,558.628s-.912,7.665-5.164,13.359c-3.121,4.181-9.413,5.924-11.556,9.834-4.1,7.95-3.114,13.359-3.114,13.359l55.812.082s1.639-3.442-3.032-12.786c-2.084-4.169-9.243-6.782-12.7-11.31a25.364,25.364,0,0,1-4.589-12.539Z" transform="translate(-1307.272 -521.924)" fill="#425fd5"/>
        </g>
      </g>
      <g id="Grupo_23-12" data-name="Grupo 23" transform="translate(473.457 371.54)">
        <g id="Componente_1_9-9" data-name="Componente 1 – 9" transform="translate(0 0)">
          <circle id="Elipse_1-54" data-name="Elipse 1" cx="14.595" cy="14.595" r="14.595" transform="translate(13.425)" fill="#2c4ccc"/>
          <path id="Caminho_1-54" data-name="Caminho 1" d="M1360.95,513.5l-8.069,5.169a26.491,26.491,0,0,0,.315,3.53,15.475,15.475,0,0,0,.82,2.9h30.891a8.364,8.364,0,0,0,1.009-2.9,17.486,17.486,0,0,0,0-3.846l-7.445-4.853Z" transform="translate(-1341.689 -487.865)" fill="#5b75dc"/>
          <path id="Caminho_2-54" data-name="Caminho 2" d="M1327.209,558.628s-.912,7.665-5.164,13.359c-3.121,4.181-9.413,5.924-11.556,9.834-4.1,7.95-3.114,13.359-3.114,13.359l55.812.082s1.639-3.442-3.032-12.786c-2.084-4.169-9.243-6.782-12.7-11.31a25.364,25.364,0,0,1-4.589-12.539Z" transform="translate(-1307.272 -521.924)" fill="#425fd5"/>
        </g>
      </g>
      <g id="Grupo_23-13" data-name="Grupo 23" transform="translate(564.258 645.795)">
        <g id="Componente_1_9-10" data-name="Componente 1 – 9" transform="translate(0 0)">
          <circle id="Elipse_1-55" data-name="Elipse 1" cx="14.595" cy="14.595" r="14.595" transform="translate(13.425)" fill="#2c4ccc"/>
          <path id="Caminho_1-55" data-name="Caminho 1" d="M1360.95,513.5l-8.069,5.169a26.491,26.491,0,0,0,.315,3.53,15.475,15.475,0,0,0,.82,2.9h30.891a8.364,8.364,0,0,0,1.009-2.9,17.486,17.486,0,0,0,0-3.846l-7.445-4.853Z" transform="translate(-1341.689 -487.865)" fill="#5b75dc"/>
          <path id="Caminho_2-55" data-name="Caminho 2" d="M1327.209,558.628s-.912,7.665-5.164,13.359c-3.121,4.181-9.413,5.924-11.556,9.834-4.1,7.95-3.114,13.359-3.114,13.359l55.812.082s1.639-3.442-3.032-12.786c-2.084-4.169-9.243-6.782-12.7-11.31a25.364,25.364,0,0,1-4.589-12.539Z" transform="translate(-1307.272 -521.924)" fill="#425fd5"/>
        </g>
      </g>
      <g id="Grupo_23-14" data-name="Grupo 23" transform="translate(564.258 281.667)">
        <g id="Componente_1_9-11" data-name="Componente 1 – 9" transform="translate(0 0)">
          <circle id="Elipse_1-56" data-name="Elipse 1" cx="14.595" cy="14.595" r="14.595" transform="translate(13.425)" fill="#2c4ccc"/>
          <path id="Caminho_1-56" data-name="Caminho 1" d="M1360.95,513.5l-8.069,5.169a26.491,26.491,0,0,0,.315,3.53,15.475,15.475,0,0,0,.82,2.9h30.891a8.364,8.364,0,0,0,1.009-2.9,17.486,17.486,0,0,0,0-3.846l-7.445-4.853Z" transform="translate(-1341.689 -487.865)" fill="#5b75dc"/>
          <path id="Caminho_2-56" data-name="Caminho 2" d="M1327.209,558.628s-.912,7.665-5.164,13.359c-3.121,4.181-9.413,5.924-11.556,9.834-4.1,7.95-3.114,13.359-3.114,13.359l55.812.082s1.639-3.442-3.032-12.786c-2.084-4.169-9.243-6.782-12.7-11.31a25.364,25.364,0,0,1-4.589-12.539Z" transform="translate(-1307.272 -521.924)" fill="#425fd5"/>
        </g>
      </g>
      <g id="Grupo_23-15" data-name="Grupo 23" transform="translate(472.531 190.866)">
        <g id="Componente_1_9-12" data-name="Componente 1 – 9" transform="translate(0 0)">
          <circle id="Elipse_1-57" data-name="Elipse 1" cx="14.595" cy="14.595" r="14.595" transform="translate(13.425)" fill="#2c4ccc"/>
          <path id="Caminho_1-57" data-name="Caminho 1" d="M1360.95,513.5l-8.069,5.169a26.491,26.491,0,0,0,.315,3.53,15.475,15.475,0,0,0,.82,2.9h30.891a8.364,8.364,0,0,0,1.009-2.9,17.486,17.486,0,0,0,0-3.846l-7.445-4.853Z" transform="translate(-1341.689 -487.865)" fill="#5b75dc"/>
          <path id="Caminho_2-57" data-name="Caminho 2" d="M1327.209,558.628s-.912,7.665-5.164,13.359c-3.121,4.181-9.413,5.924-11.556,9.834-4.1,7.95-3.114,13.359-3.114,13.359l55.812.082s1.639-3.442-3.032-12.786c-2.084-4.169-9.243-6.782-12.7-11.31a25.364,25.364,0,0,1-4.589-12.539Z" transform="translate(-1307.272 -521.924)" fill="#425fd5"/>
        </g>
      </g>
      <g id="Grupo_23-16" data-name="Grupo 23" transform="translate(564.258 100.066)">
        <g id="Componente_1_9-13" data-name="Componente 1 – 9" transform="translate(0 0)">
          <circle id="Elipse_1-58" data-name="Elipse 1" cx="14.595" cy="14.595" r="14.595" transform="translate(13.425)" fill="#2c4ccc"/>
          <path id="Caminho_1-58" data-name="Caminho 1" d="M1360.95,513.5l-8.069,5.169a26.491,26.491,0,0,0,.315,3.53,15.475,15.475,0,0,0,.82,2.9h30.891a8.364,8.364,0,0,0,1.009-2.9,17.486,17.486,0,0,0,0-3.846l-7.445-4.853Z" transform="translate(-1341.689 -487.865)" fill="#5b75dc"/>
          <path id="Caminho_2-58" data-name="Caminho 2" d="M1327.209,558.628s-.912,7.665-5.164,13.359c-3.121,4.181-9.413,5.924-11.556,9.834-4.1,7.95-3.114,13.359-3.114,13.359l55.812.082s1.639-3.442-3.032-12.786c-2.084-4.169-9.243-6.782-12.7-11.31a25.364,25.364,0,0,1-4.589-12.539Z" transform="translate(-1307.272 -521.924)" fill="#425fd5"/>
        </g>
      </g>
      <g id="Grupo_23-17" data-name="Grupo 23" transform="translate(654.132 6.486)">
        <g id="Componente_1_9-14" data-name="Componente 1 – 9" transform="translate(0 0)">
          <circle id="Elipse_1-59" data-name="Elipse 1" cx="14.595" cy="14.595" r="14.595" transform="translate(13.425)" fill="#2c4ccc"/>
          <path id="Caminho_1-59" data-name="Caminho 1" d="M1360.95,513.5l-8.069,5.169a26.491,26.491,0,0,0,.315,3.53,15.475,15.475,0,0,0,.82,2.9h30.891a8.364,8.364,0,0,0,1.009-2.9,17.486,17.486,0,0,0,0-3.846l-7.445-4.853Z" transform="translate(-1341.689 -487.865)" fill="#5b75dc"/>
          <path id="Caminho_2-59" data-name="Caminho 2" d="M1327.209,558.628s-.912,7.665-5.164,13.359c-3.121,4.181-9.413,5.924-11.556,9.834-4.1,7.95-3.114,13.359-3.114,13.359l55.812.082s1.639-3.442-3.032-12.786c-2.084-4.169-9.243-6.782-12.7-11.31a25.364,25.364,0,0,1-4.589-12.539Z" transform="translate(-1307.272 -521.924)" fill="#425fd5"/>
        </g>
      </g>
      <g id="Grupo_23-18" data-name="Grupo 23" transform="translate(654.132 191.793)">
        <g id="Componente_1_9-15" data-name="Componente 1 – 9" transform="translate(0 0)">
          <circle id="Elipse_1-60" data-name="Elipse 1" cx="14.595" cy="14.595" r="14.595" transform="translate(13.425)" fill="#2c4ccc"/>
          <path id="Caminho_1-60" data-name="Caminho 1" d="M1360.95,513.5l-8.069,5.169a26.491,26.491,0,0,0,.315,3.53,15.475,15.475,0,0,0,.82,2.9h30.891a8.364,8.364,0,0,0,1.009-2.9,17.486,17.486,0,0,0,0-3.846l-7.445-4.853Z" transform="translate(-1341.689 -487.865)" fill="#5b75dc"/>
          <path id="Caminho_2-60" data-name="Caminho 2" d="M1327.209,558.628s-.912,7.665-5.164,13.359c-3.121,4.181-9.413,5.924-11.556,9.834-4.1,7.95-3.114,13.359-3.114,13.359l55.812.082s1.639-3.442-3.032-12.786c-2.084-4.169-9.243-6.782-12.7-11.31a25.364,25.364,0,0,1-4.589-12.539Z" transform="translate(-1307.272 -521.924)" fill="#425fd5"/>
        </g>
      </g>
    </g>
    <rect id="Retângulo_21-2" data-name="Retângulo 21" width="727" height="727" transform="translate(568.165 216.165)" fill="url(#linear-gradient)"/>
    <rect id="Retângulo_28-2" data-name="Retângulo 28" width="727" height="727" transform="translate(568.165 216.165)" opacity="0.44" fill="url(#linear-gradient-2)"/>
  </g>
</svg>
